<svg width="38" height="38" viewBox="0 0 38 38" fill="none" xmlns="http://www.w3.org/2000/svg">
<rect width="38" height="38" rx="6" fill="#11664d"/>
<path d="M19.0003 16.9999C18.4699 16.9999 17.9612 17.2106 17.5861 17.5857C17.2111 17.9608 17.0003 18.4695 17.0003 18.9999C17.0003 19.5304 17.2111 20.0391 17.5861 20.4141C17.9612 20.7892 18.4699 20.9999 19.0003 20.9999C19.5308 20.9999 20.0395 20.7892 20.4146 20.4141C20.7896 20.0391 21.0003 19.5304 21.0003 18.9999C21.0003 18.4695 20.7896 17.9608 20.4146 17.5857C20.0395 17.2106 19.5308 16.9999 19.0003 16.9999ZM19.0003 15.6666C19.8844 15.6666 20.7322 16.0178 21.3574 16.6429C21.9825 17.268 22.3337 18.1159 22.3337 18.9999C22.3337 19.884 21.9825 20.7318 21.3574 21.3569C20.7322 21.9821 19.8844 22.3333 19.0003 22.3333C18.1163 22.3333 17.2684 21.9821 16.6433 21.3569C16.0182 20.7318 15.667 19.884 15.667 18.9999C15.667 18.1159 16.0182 17.268 16.6433 16.6429C17.2684 16.0178 18.1163 15.6666 19.0003 15.6666ZM23.3337 15.4999C23.3337 15.7209 23.2459 15.9329 23.0896 16.0892C22.9333 16.2455 22.7214 16.3333 22.5003 16.3333C22.2793 16.3333 22.0674 16.2455 21.9111 16.0892C21.7548 15.9329 21.667 15.7209 21.667 15.4999C21.667 15.2789 21.7548 15.0669 21.9111 14.9107C22.0674 14.7544 22.2793 14.6666 22.5003 14.6666C22.7214 14.6666 22.9333 14.7544 23.0896 14.9107C23.2459 15.0669 23.3337 15.2789 23.3337 15.4999ZM19.0003 13.6666C17.351 13.6666 17.0817 13.6713 16.3143 13.7053C15.7917 13.7299 15.441 13.7999 15.1157 13.9266C14.8436 14.0268 14.5975 14.187 14.3957 14.3953C14.1872 14.597 14.0268 14.8431 13.9263 15.1153C13.7997 15.4419 13.7297 15.7919 13.7057 16.3139C13.671 17.0499 13.6663 17.3073 13.6663 18.9999C13.6663 20.6499 13.671 20.9186 13.705 21.6859C13.7297 22.2079 13.7997 22.5593 13.9257 22.8839C14.039 23.1739 14.1723 23.3826 14.3937 23.6039C14.6183 23.8279 14.827 23.9619 15.1137 24.0726C15.443 24.1999 15.7937 24.2706 16.3137 24.2946C17.0497 24.3293 17.307 24.3333 18.9997 24.3333C20.6497 24.3333 20.9183 24.3286 21.6857 24.2946C22.207 24.2699 22.5577 24.1999 22.8837 24.0739C23.1558 23.9737 23.4019 23.8135 23.6037 23.6053C23.8283 23.3813 23.9623 23.1726 24.073 22.8853C24.1997 22.5573 24.2703 22.2066 24.2943 21.6853C24.329 20.9499 24.333 20.6919 24.333 18.9999C24.333 17.3506 24.3283 17.0813 24.2943 16.3139C24.2697 15.7926 24.199 15.4406 24.073 15.1153C23.9728 14.8431 23.8126 14.5971 23.6043 14.3953C23.4026 14.1868 23.1565 14.0264 22.8843 13.9259C22.5577 13.7993 22.207 13.7293 21.6857 13.7053C20.9503 13.6706 20.693 13.6666 18.9997 13.6666M18.9997 12.3333C20.811 12.3333 21.037 12.3399 21.7483 12.3733C22.4577 12.4066 22.9417 12.5179 23.3663 12.6833C23.8063 12.8526 24.177 13.0819 24.5477 13.4519C24.8868 13.7851 25.1491 14.1882 25.3163 14.6333C25.481 15.0579 25.593 15.5419 25.6263 16.2519C25.6577 16.9626 25.6663 17.1886 25.6663 18.9999C25.6663 20.8113 25.6597 21.0373 25.6263 21.7479C25.593 22.4586 25.481 22.9413 25.3163 23.3666C25.1491 23.8116 24.8868 24.2148 24.5477 24.5479C24.2145 24.887 23.8114 25.1494 23.3663 25.3166C22.9417 25.4813 22.4577 25.5933 21.7483 25.6266C21.037 25.6579 20.811 25.6666 18.9997 25.6666C17.1883 25.6666 16.9623 25.6599 16.251 25.6266C15.5417 25.5933 15.0583 25.4813 14.633 25.3166C14.188 25.1494 13.7848 24.887 13.4517 24.5479C13.1125 24.2148 12.8502 23.8116 12.683 23.3666C12.5177 22.9419 12.4063 22.4579 12.373 21.7479C12.341 21.0373 12.333 20.8113 12.333 18.9999C12.333 17.1886 12.3397 16.9626 12.373 16.2519C12.4063 15.5413 12.5177 15.0586 12.683 14.6333C12.8502 14.1882 13.1125 13.7851 13.4517 13.4519C13.7848 13.1128 14.188 12.8505 14.633 12.6833C15.0577 12.5179 15.541 12.4066 16.251 12.3733C16.963 12.3419 17.189 12.3333 19.0003 12.3333" fill="white"/>
</svg>
