<svg width="38" height="38" viewBox="0 0 38 38" fill="none" xmlns="http://www.w3.org/2000/svg">
<rect width="38" height="38" rx="6" fill="#11664d"/>
<path d="M25.973 15.0001C25.4597 15.2334 24.9064 15.3867 24.333 15.4601C24.9197 15.1067 25.373 14.5467 25.5864 13.8734C25.033 14.2067 24.4197 14.4401 23.773 14.5734C23.2464 14.0001 22.5064 13.6667 21.6664 13.6667C20.0997 13.6667 18.8197 14.9467 18.8197 16.5267C18.8197 16.7534 18.8464 16.9734 18.893 17.1801C16.5197 17.0601 14.4064 15.9201 12.9997 14.1934C12.753 14.6134 12.613 15.1067 12.613 15.6267C12.613 16.6201 13.113 17.5001 13.8864 18.0001C13.413 18.0001 12.973 17.8667 12.5864 17.6667V17.6867C12.5864 19.0734 13.573 20.2334 14.8797 20.4934C14.4603 20.6087 14.0197 20.6247 13.593 20.5401C13.7741 21.1084 14.1287 21.6057 14.607 21.962C15.0854 22.3184 15.6633 22.5159 16.2597 22.5267C15.2488 23.3271 13.9957 23.7597 12.7064 23.7534C12.4797 23.7534 12.253 23.7401 12.0264 23.7134C13.293 24.5267 14.7997 25.0001 16.413 25.0001C21.6664 25.0001 24.553 20.6401 24.553 16.8601C24.553 16.7334 24.553 16.6134 24.5464 16.4867C25.1064 16.0867 25.5864 15.5801 25.973 15.0001Z" fill="white"/>
</svg>
