<svg width="38" height="38" viewBox="0 0 38 38" fill="none" xmlns="http://www.w3.org/2000/svg">
<rect width="38" height="38" rx="6" fill="#11664d"/>
<g clip-path="url(#clip0_2045_172)">
<path d="M18.9998 18.3333L16.3331 25M17.6491 22.048C18.3744 22.3696 19.1907 22.422 19.9511 22.1957C20.7116 21.9694 21.3664 21.4792 21.7978 20.8133C22.2292 20.1475 22.409 19.3495 22.3048 18.563C22.2006 17.7764 21.8192 17.0529 21.2293 16.5223C20.6393 15.9918 19.8795 15.6891 19.0863 15.6686C18.2932 15.6481 17.5187 15.9113 16.9022 16.4107C16.2857 16.9101 15.8675 17.613 15.7229 18.3932C15.5782 19.1733 15.7166 19.9794 16.1131 20.6667" stroke="white" stroke-linecap="round" stroke-linejoin="round"/>
<path d="M18.9997 25.6666C22.6816 25.6666 25.6663 22.6818 25.6663 18.9999C25.6663 15.318 22.6816 12.3333 18.9997 12.3333C15.3178 12.3333 12.333 15.318 12.333 18.9999C12.333 22.6818 15.3178 25.6666 18.9997 25.6666Z" stroke="white" stroke-linecap="round" stroke-linejoin="round"/>
</g>
<defs>
<clipPath id="clip0_2045_172">
<rect width="16" height="16" fill="white" transform="translate(11 11)"/>
</clipPath>
</defs>
</svg>
