<svg width="50" height="50" viewBox="0 0 50 50" fill="none" xmlns="http://www.w3.org/2000/svg">
<g clip-path="url(#clip0_79_669)">
<path d="M11.5869 19.1331C13.7069 19.1331 15.7792 19.7617 17.5419 20.9395C19.3046 22.1173 20.6785 23.7913 21.4897 25.7499C22.301 27.7085 22.5133 29.8637 22.0997 31.9429C21.6861 34.0222 20.6653 35.9321 19.1662 37.4311C17.6672 38.9301 15.7573 39.951 13.678 40.3646C11.5988 40.7782 9.44361 40.5659 7.48502 39.7546C5.52642 38.9434 3.85238 37.5695 2.67459 35.8068C1.4968 34.0441 0.868153 31.9718 0.868153 29.8518L0.819153 28.3206C0.819153 25.5053 1.37365 22.7177 2.45098 20.1168C3.52832 17.5159 5.1074 15.1526 7.09805 13.1619C9.08871 11.1713 11.452 9.59222 14.0529 8.51488C16.6538 7.43755 19.4414 6.88305 22.2567 6.88305V13.008C20.2449 13.0026 18.252 13.3961 16.3933 14.1657C14.5345 14.9352 12.8468 16.0657 11.4277 17.4916C10.876 18.042 10.3672 18.6338 9.90559 19.2617C10.4618 19.1749 11.0239 19.1309 11.5869 19.13V19.1331ZM39.1494 19.1331C41.2694 19.1331 43.3417 19.7617 45.1044 20.9395C46.8671 22.1173 48.241 23.7913 49.0522 25.7499C49.8635 27.7085 50.0758 29.8637 49.6622 31.9429C49.2486 34.0222 48.2278 35.9321 46.7287 37.4311C45.2297 38.9301 43.3198 39.951 41.2405 40.3646C39.1613 40.7782 37.0061 40.5659 35.0475 39.7546C33.0889 38.9434 31.4149 37.5695 30.2371 35.8068C29.0593 34.0441 28.4307 31.9718 28.4307 29.8518L28.3817 28.3206C28.3817 22.635 30.6402 17.1823 34.6606 13.1619C38.6809 9.14164 44.1336 6.88305 49.8192 6.88305V13.008C47.8074 13.0026 45.8145 13.3961 43.9558 14.1657C42.0971 14.9352 40.4093 16.0657 38.9902 17.4916C38.4385 18.042 37.9297 18.6338 37.4681 19.2617C38.0244 19.1749 38.5864 19.1309 39.1494 19.13V19.1331Z" fill="#E7E6E6"/>
</g>
<defs>
<clipPath id="clip0_79_669">
<rect width="49" height="49" fill="white" transform="matrix(-1 0 0 -1 49.8682 49.7581)"/>
</clipPath>
</defs>
</svg>
