<?xml version="1.0" encoding="UTF-8"?>
<svg version="1.1" xmlns="http://www.w3.org/2000/svg" width="170" height="170">
<path d="M0 0 C1.9375 0.25 1.9375 0.25 4 1 C6.90492245 5.35738368 8.09574874 9.87590951 9 15 C8.34 15.33 7.68 15.66 7 16 C10.17539556 19.42578949 10.17539556 19.42578949 14 22 C13.33333333 24.66666667 12.66666667 27.33333333 12 30 C12.78375 30.28875 13.5675 30.5775 14.375 30.875 C17 32 17 32 19 34 C20.96987648 34.2626502 22.94105812 34.51962219 24.91796875 34.72265625 C27.76458003 35.10184837 30.304763 36.02512704 33 37 C35.32631371 37.69364729 37.66225561 38.34543157 40 39 C39.773125 38.236875 39.54625 37.47375 39.3125 36.6875 C39 34 39 34 40.3125 32.1875 C42 31 42 31 44 31 C44.495 33.475 44.495 33.475 45 36 C46.98 36.33 48.96 36.66 51 37 C51.5775 36.21625 52.155 35.4325 52.75 34.625 C54.92026102 32.09302881 56.09383374 31.36226543 59 30 C59.556875 29.34 60.11375 28.68 60.6875 28 C64.05011442 25.09179293 67.69251248 24.69950652 72 24 C72 24.66 72 25.32 72 26 C72.66 26 73.32 26 74 26 C75.625 27.125 75.625 27.125 77 29 C77.1875 32.1875 77.1875 32.1875 77 35 C75.02 35.33 73.04 35.66 71 36 C70.731875 36.845625 70.46375 37.69125 70.1875 38.5625 C68.9521405 42.13854067 67.523012 45.53860908 66 49 C65.34 49 64.68 49 64 49 C63.34 51.97 62.68 54.94 62 58 C59 57 59 57 57 55 C55.515 54.505 55.515 54.505 54 54 C53.125 52.1875 53.125 52.1875 53 50 C54.4375 47.75 54.4375 47.75 56 46 C53.36 45.67 50.72 45.34 48 45 C48 43.68 48 42.36 48 41 C46.35 40.67 44.7 40.34 43 40 C43.556875 41.1446875 43.556875 41.1446875 44.125 42.3125 C44.41375 43.199375 44.7025 44.08625 45 45 C44.34 45.99 43.68 46.98 43 48 C43.66 48 44.32 48 45 48 C45.495 53.94 45.495 53.94 46 60 C45.01 60 44.02 60 43 60 C40.83572704 60.45599341 40.83572704 60.45599341 39 62 C38.731875 63.11375 38.46375 64.2275 38.1875 65.375 C37 69 37 69 33.6875 71.125 C33.06101562 71.42921875 32.43453125 71.7334375 31.7890625 72.046875 C29.03876859 73.51209708 27.16614996 75.78101712 25 78 C23.70556167 79.04364091 22.39149551 80.06323633 21.0625 81.0625 C20.38316406 81.57554687 19.70382813 82.08859375 19.00390625 82.6171875 C17 84 17 84 13.5 85.6875 C10.7480768 87.73592047 10.7480768 87.73592047 10.66796875 90.62109375 C10.68080335 92.59505545 10.75208104 94.56965594 10.88671875 96.5390625 C11 99 11 99 10 101 C9.92378266 102.43683799 9.86325163 103.87453728 9.8125 105.3125 C9.41417419 109.52530179 9.41417419 109.52530179 7.63671875 111.5625 C6.10765906 112.73027829 4.55459676 113.86643986 3 115 C2.05563651 117.16531168 2.05563651 117.16531168 2 119 C-3.37313433 119.35820896 -3.37313433 119.35820896 -5.75 118 C-7.27336329 115.56261873 -7.73527157 113.13512923 -8.34765625 110.3515625 C-9.0844033 107.69574379 -10.1332804 105.36568813 -11.3125 102.875 C-23.80087516 76.24050076 -23.80087516 76.24050076 -21 63 C-22.485 63.99 -22.485 63.99 -24 65 C-26.94261693 65.07953019 -28.47186485 64.47581988 -30.65625 62.5078125 C-35 57.73378538 -35 57.73378538 -35 53 C-35.66 52.67 -36.32 52.34 -37 52 C-36.67 50.68 -36.34 49.36 -36 48 C-34.88625 47.690625 -33.7725 47.38125 -32.625 47.0625 C-29.2054845 46.17673517 -29.2054845 46.17673517 -27 45 C-27.7115625 43.948125 -27.7115625 43.948125 -28.4375 42.875 C-30.11851384 39.78193454 -30.77151891 37.50337677 -31 34 C-30.34 33.01 -29.68 32.02 -29 31 C-27.88625 31.020625 -26.7725 31.04125 -25.625 31.0625 C-21.99857196 31.35630196 -21.99857196 31.35630196 -19.6875 29.25 C-18.16283421 27.21711228 -16.99893847 25.33085643 -16 23 C-15.34 23 -14.68 23 -14 23 C-12.74335022 20.09399739 -12 18.20395416 -12 15 C-11.34 14.67 -10.68 14.34 -10 14 C-10.495 13.67 -10.99 13.34 -11.5 13 C-13.88179561 9.82427253 -13.19168226 6.89753934 -13 3 C-9.98968256 2.06576355 -9.13349732 1.95550089 -6 3 C-2.72554706 1.9769517 -2.72554706 1.9769517 0 0 Z " fill="#669775" transform="translate(65,51)"/>
<path d="M0 0 C1.9375 0.25 1.9375 0.25 4 1 C6.90492245 5.35738368 8.09574874 9.87590951 9 15 C8.01 15.495 8.01 15.495 7 16 C10.17539556 19.42578949 10.17539556 19.42578949 14 22 C13.33333333 24.66666667 12.66666667 27.33333333 12 30 C12.78375 30.28875 13.5675 30.5775 14.375 30.875 C17 32 17 32 19 34 C20.96987648 34.2626502 22.94105812 34.51962219 24.91796875 34.72265625 C27.76458003 35.10184837 30.304763 36.02512704 33 37 C35.32631371 37.69364729 37.66225561 38.34543157 40 39 C39.773125 38.236875 39.54625 37.47375 39.3125 36.6875 C39 34 39 34 40.3125 32.1875 C42 31 42 31 44 31 C44.495 33.475 44.495 33.475 45 36 C47.97 36.495 47.97 36.495 51 37 C51.5775 36.21625 52.155 35.4325 52.75 34.625 C54.92026102 32.09302881 56.09383374 31.36226543 59 30 C59.556875 29.34 60.11375 28.68 60.6875 28 C64.05011442 25.09179293 67.69251248 24.69950652 72 24 C72 24.66 72 25.32 72 26 C72.66 26 73.32 26 74 26 C75.625 27.125 75.625 27.125 77 29 C77.1875 32.1875 77.1875 32.1875 77 35 C75.02 35.33 73.04 35.66 71 36 C70.731875 36.845625 70.46375 37.69125 70.1875 38.5625 C68.9521405 42.13854067 67.523012 45.53860908 66 49 C65.34 49 64.68 49 64 49 C63.34 51.97 62.68 54.94 62 58 C59 57 59 57 57 55 C55.515 54.505 55.515 54.505 54 54 C53.125 52.1875 53.125 52.1875 53 50 C54.4375 47.75 54.4375 47.75 56 46 C53.36 45.67 50.72 45.34 48 45 C48 43.68 48 42.36 48 41 C46.35 40.67 44.7 40.34 43 40 C43.37125 40.763125 43.7425 41.52625 44.125 42.3125 C44.41375 43.199375 44.7025 44.08625 45 45 C44.34 45.99 43.68 46.98 43 48 C43.66 48 44.32 48 45 48 C45.495 53.94 45.495 53.94 46 60 C45.01 60 44.02 60 43 60 C40.83572704 60.45599341 40.83572704 60.45599341 39 62 C38.731875 63.11375 38.46375 64.2275 38.1875 65.375 C37 69 37 69 33.6875 71.125 C33.06101563 71.42921875 32.43453125 71.7334375 31.7890625 72.046875 C29.03876859 73.51209708 27.16614996 75.78101712 25 78 C17.68085106 84 17.68085106 84 15 84 C10.42140574 69.69888054 6.07968183 55.33427485 1.8125 40.9375 C1.19090748 38.84435582 0.56916332 36.75125666 -0.05273438 34.65820312 C-0.92886144 31.70946506 -1.80480262 28.76067389 -2.67948914 25.81150818 C-2.94018692 24.93261429 -3.2008847 24.0537204 -3.46948242 23.14819336 C-3.72031586 22.29812714 -3.97114929 21.44806091 -4.22958374 20.57223511 C-4.76119003 18.7973292 -5.30633762 17.02644234 -5.86245728 15.25906372 C-6.13770233 14.37765717 -6.41294739 13.49625061 -6.6965332 12.58813477 C-6.94659622 11.80197281 -7.19665924 11.01581085 -7.45429993 10.20582581 C-8 8 -8 8 -8 4 C-6.865625 3.525625 -5.73125 3.05125 -4.5625 2.5625 C-1.24259834 1.36377917 -1.24259834 1.36377917 0 0 Z " fill="#73AC84" transform="translate(65,51)"/>
<path d="M0 0 C0.66 0 1.32 0 2 0 C2.99 2.31 3.98 4.62 5 7 C3.625 8.5 3.625 8.5 2 10 C1.34 10 0.68 10 0 10 C-1.49106457 7.01787087 -1.11941467 4.28390342 -1 1 C-0.67 0.67 -0.34 0.34 0 0 Z " fill="#A1BC81" transform="translate(80,125)"/>
<path d="M0 0 C0.99 0 1.98 0 3 0 C3 1.98 3 3.96 3 6 C2.01 6 1.02 6 0 6 C0 4.02 0 2.04 0 0 Z " fill="#CFA33C" transform="translate(66,130)"/>
<path d="M0 0 C0.66 0.33 1.32 0.66 2 1 C1.34 2.65 0.68 4.3 0 6 C-0.99 6 -1.98 6 -3 6 C-1.125 1.125 -1.125 1.125 0 0 Z " fill="#DBC976" transform="translate(54,125)"/>
<path d="M0 0 C-0.33 0.99 -0.66 1.98 -1 3 C-2.65 3.33 -4.3 3.66 -6 4 C-6 3.01 -6 2.02 -6 1 C-3 0 -3 0 0 0 Z " fill="#E8AD35" transform="translate(49,118)"/>
<path d="M0 0 C1.65 0 3.3 0 5 0 C5.33 0.99 5.66 1.98 6 3 C4.02 3 2.04 3 0 3 C0 2.01 0 1.02 0 0 Z " fill="#E1D27B" transform="translate(89,107)"/>
</svg>
