<?xml version="1.0" encoding="UTF-8"?>
<svg version="1.1" xmlns="http://www.w3.org/2000/svg" width="512" height="512">
<path d="M0 0 C0.99261841 0.00215515 1.98523682 0.0043103 3.00793457 0.00653076 C17.83440163 0.05816285 32.35262639 0.38658718 46.9375 3.3125 C48.42540039 3.61051514 48.42540039 3.61051514 49.94335938 3.91455078 C108.49010377 16.08899062 164.12373604 47.46159239 200.9375 95.3125 C202.09572266 96.74529297 202.09572266 96.74529297 203.27734375 98.20703125 C231.24894123 133.33723661 248.47867315 176.03543144 254.9375 220.3125 C255.05464355 221.10301758 255.17178711 221.89353516 255.29248047 222.70800781 C264.44843178 287.65676197 246.42748085 356.09507351 207.30859375 408.50537109 C201.87966363 415.66080927 196.0461788 422.40509311 189.9921875 429.03515625 C188.23184202 430.9862616 186.54565677 432.97263544 184.875 435 C182.21975915 438.11954527 179.28752892 440.746792 176.1640625 443.390625 C174.62607336 444.71815247 173.12228607 446.08597943 171.6484375 447.484375 C121.73299267 494.77269115 53.27344255 513.9603609 -14.0625 512.3125 C-81.62905342 509.61641368 -144.18718388 476.95973854 -190.0625 428.3125 C-193.18146458 424.73455735 -196.13714544 421.04960216 -199.0625 417.3125 C-199.85269531 416.32765625 -200.64289063 415.3428125 -201.45703125 414.328125 C-225.02583584 384.68262307 -241.69119431 349.66310278 -249.875 312.6875 C-250.14896606 311.45821777 -250.14896606 311.45821777 -250.4284668 310.20410156 C-254.12775777 292.31764528 -255.58892476 274.61200645 -255.4375 256.375 C-255.43284729 255.36924927 -255.42819458 254.36349854 -255.42340088 253.32727051 C-255.34474229 238.80510938 -254.98368897 224.58240229 -252.0625 210.3125 C-251.77246094 208.81759033 -251.77246094 208.81759033 -251.4765625 207.29248047 C-243.59441592 167.40127721 -227.08811087 128.79976529 -201.0625 97.3125 C-200.40967041 96.51755127 -200.40967041 96.51755127 -199.74365234 95.70654297 C-182.84423265 75.18277849 -182.84423265 75.18277849 -173.046875 66.9921875 C-171.67019459 65.82688716 -170.3280172 64.62006774 -169.015625 63.3828125 C-156.4826139 51.58449516 -142.10430718 41.63220985 -127.0625 33.3125 C-126.29776367 32.88372559 -125.53302734 32.45495117 -124.74511719 32.01318359 C-101.48846085 19.0616794 -76.88388702 10.11623395 -50.875 4.5625 C-49.95017822 4.36366211 -49.02535645 4.16482422 -48.07250977 3.95996094 C-32.05557325 0.7066297 -16.30154346 -0.06372849 0 0 Z " fill="#E0E2E7" transform="translate(255.0625,-0.31250000000000006)"/>
<path d="M0 0 C1.65 0.33 3.3 0.66 5 1 C5.08636719 1.61488281 5.17273438 2.22976562 5.26171875 2.86328125 C6.0475166 8.10880724 6.0475166 8.10880724 9.4375 11.9375 C10.283125 12.288125 11.12875 12.63875 12 13 C15 15 15 15 16.24609375 17.40625 C18.89683281 21.32627391 22.78314598 22.53663298 26.99414062 24.31640625 C29.98757976 25.67275907 31.74364323 26.54975996 33.39453125 29.44921875 C34.23338762 32.98323945 34.63241611 36.38542506 35 40 C36.65 40.66 38.3 41.32 40 42 C39.79141357 42.64686768 39.58282715 43.29373535 39.36791992 43.96020508 C37.17283749 51.26913448 36.47552538 58.0812016 36.3125 65.6875 C36.27833984 66.78255859 36.24417969 67.87761719 36.20898438 69.00585938 C36.12753339 71.67047023 36.05805779 74.33479462 36 77 C36.763125 76.690625 37.52625 76.38125 38.3125 76.0625 C40.18789677 75.32106407 42.08684652 74.63771783 44 74 C44.72455635 72.35767228 45.37774395 70.68375165 46 69 C48.82030539 62.65961419 48.82030539 62.65961419 51.79370117 60.99707031 C53.88937526 60.26897441 55.96646385 59.69913871 58.125 59.1875 C63.52776001 58.00720834 63.52776001 58.00720834 68 55 C70.3828125 55.2421875 70.3828125 55.2421875 73.125 55.875 C74.03507812 56.07867187 74.94515625 56.28234375 75.8828125 56.4921875 C76.58148438 56.65976562 77.28015625 56.82734375 78 57 C78.9932043 60.78115356 78.96415089 63.14828929 77.76953125 66.859375 C77.46756836 67.7975708 77.16560547 68.7357666 76.85449219 69.70239258 C76.51063477 70.70810303 76.16677734 71.71381348 75.8125 72.75 C75.27544434 74.33107544 75.27544434 74.33107544 74.72753906 75.9440918 C60.67371424 115.91002552 34.9450898 152.54706082 0 177 C-0.63019043 177.44214844 -1.26038086 177.88429688 -1.90966797 178.33984375 C-26.12674359 195.0977515 -53.14110709 206.94199747 -82 213 C-82.75522949 213.16226074 -83.51045898 213.32452148 -84.28857422 213.49169922 C-97.64285401 216.20057448 -111.11553675 216.30942241 -124.6875 216.375 C-125.54974182 216.38294586 -126.41198364 216.39089172 -127.300354 216.39907837 C-143.10818551 216.5108828 -158.48027346 214.76218461 -173.8125 210.8125 C-174.62396484 210.60455811 -175.43542969 210.39661621 -176.27148438 210.18237305 C-211.23025103 200.86603506 -241.94930986 182.94815108 -268 158 C-268.49886719 157.52836426 -268.99773437 157.05672852 -269.51171875 156.57080078 C-284.33082458 142.50884079 -295.94810667 126.06806552 -306.0625 108.375 C-306.44486816 107.71193848 -306.82723633 107.04887695 -307.22119141 106.36572266 C-309.13596516 102.93775918 -310.5127238 99.91320274 -311 96 C-305.52845734 94.11830085 -299.99304453 92.486532 -294.4375 90.875 C-293.50486328 90.59785156 -292.57222656 90.32070313 -291.61132812 90.03515625 C-290.70705078 89.77347656 -289.80277344 89.51179688 -288.87109375 89.2421875 C-288.05568115 89.0035498 -287.24026855 88.76491211 -286.40014648 88.51904297 C-283.86551429 87.97091683 -281.58528077 87.90858231 -279 88 C-279.05220703 88.90878906 -279.05220703 88.90878906 -279.10546875 89.8359375 C-279.45038829 100.51201849 -277.18100522 107.45336928 -269.9375 115.3828125 C-268.03676451 117.32039659 -268.03676451 117.32039659 -265 117 C-265.28875 116.4225 -265.5775 115.845 -265.875 115.25 C-266.24625 114.5075 -266.6175 113.765 -267 113 C-267.556875 112.071875 -267.556875 112.071875 -268.125 111.125 C-269.33272979 108.19194195 -269.38546128 106.14793377 -269 103 C-268.319375 102.195625 -267.63875 101.39125 -266.9375 100.5625 C-265.9784375 99.2940625 -265.9784375 99.2940625 -265 98 C-265.185625 96.845 -265.37125 95.69 -265.5625 94.5 C-265.706875 93.345 -265.85125 92.19 -266 91 C-263.5625 88.3125 -263.5625 88.3125 -261 86 C-261 84.68 -261 83.36 -261 82 C-260.07662842 81.7733667 -259.15325684 81.5467334 -258.2019043 81.31323242 C-254.77245645 80.46618061 -251.34564382 79.60973279 -247.92016602 78.74682617 C-246.43803718 78.37552413 -244.95496252 78.00797628 -243.47094727 77.64428711 C-241.33609511 77.1204014 -239.20502563 76.58304094 -237.07421875 76.04296875 C-236.41161545 75.88346237 -235.74901215 75.72395599 -235.06632996 75.55961609 C-231.24914306 74.57556996 -229.89454239 73.89454239 -227 71 C-232.94 72.65 -238.88 74.3 -245 76 C-245 73.69 -245 71.38 -245 69 C-244.4225 69.350625 -243.845 69.70125 -243.25 70.0625 C-240.53462869 71.19390471 -239.71925384 70.99859604 -237 70 C-235.19727798 68.5594706 -235.19727798 68.5594706 -233.5625 66.75 C-232.95921875 66.11707031 -232.3559375 65.48414063 -231.734375 64.83203125 C-231.16203125 64.22746094 -230.5896875 63.62289062 -230 63 C-228.6696875 61.7315625 -228.6696875 61.7315625 -227.3125 60.4375 C-224.81887081 58.08244545 -224.81887081 58.08244545 -223.5625 54.75 C-221 52 -221 52 -217.8828125 51.6796875 C-216.66335937 51.66164063 -215.44390625 51.64359375 -214.1875 51.625 C-209.18641836 51.53476719 -209.18641836 51.53476719 -204.73828125 49.5625 C-200.72693819 45.09142998 -198.16328182 39.72063065 -195.40234375 34.42578125 C-192.60390474 29.58502741 -189.01566741 27.94450999 -184 26 C-191.66533086 42.51291671 -199.8269145 58.77442094 -207.98840332 75.04547119 C-209.80042405 78.65911293 -211.61005862 82.27394924 -213.41992188 85.88867188 C-216.94434098 92.92692199 -220.47130966 99.96389015 -224 107 C-220.77075895 106.95702952 -217.5444121 106.86743425 -214.31640625 106.76953125 C-213.40491821 106.75796997 -212.49343018 106.74640869 -211.55432129 106.73449707 C-207.16814232 106.57994882 -204.66800196 106.44462279 -200.9453125 103.96679688 C-198.72061405 101.44128803 -196.886033 98.78660453 -195 96 C-193.19064795 93.96681059 -191.36937312 91.97504857 -189.5 90 C-188.56059408 88.98092028 -187.62307132 87.96010121 -186.6875 86.9375 C-185.3571875 85.4834375 -185.3571875 85.4834375 -184 84 C-182.4977582 82.33535368 -180.99763443 80.66879265 -179.5 79 C-175.7239374 74.79238739 -171.90895993 70.62157628 -168.08374023 66.45874023 C-165.22397796 63.34366875 -162.38484641 60.21148325 -159.5625 57.0625 C-155.56551622 52.6079009 -151.50925591 48.21081521 -147.44384766 43.81884766 C-143.69270395 39.76197559 -139.98626604 35.6674745 -136.30078125 31.55078125 C-134.57913885 29.64206735 -132.84836304 27.74460393 -131.10546875 25.85546875 C-130.61054932 25.31865479 -130.11562988 24.78184082 -129.60571289 24.22875977 C-128.64425657 23.18740666 -127.68128839 22.14744664 -126.71655273 21.10913086 C-124.80155735 19.03428962 -123.01263504 17.01870111 -121.4296875 14.67578125 C-120 13 -120 13 -118.0625 12.50390625 C-112.60638298 12.65890957 -112.60638298 12.65890957 -110 14.125 C-108.57901395 16.78934884 -108.80232739 19.03491085 -109 22 C-107.7934375 22.2165625 -107.7934375 22.2165625 -106.5625 22.4375 C-104 23 -104 23 -103 24 C-102.625 26.0625 -102.625 26.0625 -103 29 C-103.8339703 30.11949911 -104.6913159 31.22170993 -105.5625 32.3125 C-108.35806183 36.4359537 -108.08542736 39.86105272 -107.5625 44.625 C-106.73835555 52.64867509 -107.42647152 59.59287492 -111 67 C-112.92783839 69.22442892 -114.78692395 70.88898464 -117.1953125 72.5703125 C-119.38251626 74.30303236 -120.09394739 75.3536087 -121 78 C-121.24813682 80.60543665 -121.41333503 83.14042151 -121.5 85.75 C-121.72443503 90.60124946 -122.11472999 95.08188774 -123.52734375 99.73828125 C-124.38795094 103.85639332 -124.46627929 108.08439017 -124.65820312 112.27929688 C-124.83245079 115.94560998 -125.15977342 119.423829 -126 123 C-119.96373103 126.19651123 -114.86766629 128.03710614 -108 127 C-102.14206758 125.04735586 -95.0850641 121.88701184 -91.375 116.75 C-90.92125 116.1725 -90.4675 115.595 -90 115 C-89.030625 114.95875 -88.06125 114.9175 -87.0625 114.875 C-86.051875 114.58625 -85.04125 114.2975 -84 114 C-82.89231467 111.77881683 -82.89231467 111.77881683 -82.0625 109.125 C-80.35958152 104.22561978 -80.35958152 104.22561978 -76.8125 102 C-73 101 -73 101 -70.6875 100.67578125 C-68.30572094 100.31146307 -66.23558732 99.90467347 -64 99 C-59.82476841 93.24495105 -58.72748853 86.34051753 -57.22265625 79.48828125 C-54.52852362 71.80182617 -46.90369893 67.65634292 -40 64 C-37.34281619 62.95086115 -34.64311535 62.04062467 -31.9375 61.125 C-24.71806843 58.64521178 -18.71429064 55.23283618 -14 49 C-14 47.68 -14 46.36 -14 45 C-17.96 44.01 -21.92 43.02 -26 42 C-26.33 40.35 -26.66 38.7 -27 37 C-26.0867395 36.970271 -26.0867395 36.970271 -25.1550293 36.93994141 C-4.20694534 37.47415603 -4.20694534 37.47415603 14 29 C14.88396068 27.01840815 14.88396068 27.01840815 15 25 C14.02727325 23.64664105 13.0260734 22.31337396 12 21 C12 19.68 12 18.36 12 17 C8.7 17 5.4 17 2 17 C-0.29612756 5.47835991 -0.29612756 5.47835991 0 0 Z " fill="#53B4EC" transform="translate(379,248)"/>
<path d="M0 0 C0.79663055 -0.00067474 1.59326111 -0.00134949 2.41403198 -0.00204468 C22.52799594 0.02492484 41.5565482 2.27997197 60.8125 8.25 C61.60156738 8.49202148 62.39063477 8.73404297 63.20361328 8.98339844 C82.49230192 15.01815224 101.35144865 23.4369963 117.8125 35.25 C118.4523584 35.70487793 119.0922168 36.15975586 119.75146484 36.62841797 C129.0226746 43.26528255 137.61676489 50.32261092 145.8125 58.25 C146.3070166 58.71873535 146.8015332 59.1874707 147.31103516 59.67041016 C163.43458772 74.96578666 176.68254708 93.47112544 186.8125 113.25 C186.8125 113.91 186.8125 114.57 186.8125 115.25 C186.1525 115.25 185.4925 115.25 184.8125 115.25 C184.4825 113.93 184.1525 112.61 183.8125 111.25 C182.14638095 111.207279 180.47867115 111.20936168 178.8125 111.25 C177.45631501 112.37534105 177.45631501 112.37534105 177.75 115.3125 C177.7809375 116.7665625 177.7809375 116.7665625 177.8125 118.25 C175.57686911 117.21202851 173.77258663 116.21652427 171.875 114.625 C169.9219921 113.03588395 169.9219921 113.03588395 167.625 113.3125 C163.40194865 113.21865441 157.87748988 111.31498988 154.8125 108.25 C152.96358054 108.01636119 151.10761969 107.83696365 149.25 107.6875 C147.73212891 107.56181641 147.73212891 107.56181641 146.18359375 107.43359375 C145.40113281 107.37300781 144.61867188 107.31242187 143.8125 107.25 C143.8125 106.26 143.8125 105.27 143.8125 104.25 C143.1525 104.25 142.4925 104.25 141.8125 104.25 C141.1525 105.24 140.4925 106.23 139.8125 107.25 C137.0625 107.61328125 137.0625 107.61328125 133.8125 107.5625 C132.20375 107.55669922 132.20375 107.55669922 130.5625 107.55078125 C127.8125 107.25 127.8125 107.25 125.8125 105.25 C125.8125 103.93 125.8125 102.61 125.8125 101.25 C129.1125 102.24 132.4125 103.23 135.8125 104.25 C133.83553161 98.84628641 130.79983978 96.31533054 126.171875 92.984375 C123.8125 91.25 123.8125 91.25 122.078125 89.578125 C117.48265553 85.31993769 112.63776648 84.25840611 106.625 83.1875 C105.8400415 83.0421582 105.05508301 82.89681641 104.24633789 82.74707031 C100.59423123 82.19713167 98.48964622 81.93992306 95.07421875 83.50390625 C94.32785156 84.08011719 93.58148438 84.65632813 92.8125 85.25 C88.92840197 87.89168865 86.19416301 88.67957896 81.5 88.9375 C80.43136719 89.00324219 79.36273438 89.06898438 78.26171875 89.13671875 C77.45347656 89.17410156 76.64523437 89.21148437 75.8125 89.25 C75.1525 92.22 74.4925 95.19 73.8125 98.25 C76.7825 98.25 79.7525 98.25 82.8125 98.25 C82.8125 100.89 82.8125 103.53 82.8125 106.25 C81.8225 106.25 80.8325 106.25 79.8125 106.25 C79.8125 104.93 79.8125 103.61 79.8125 102.25 C77.85355639 102.36306697 77.85355639 102.36306697 75.8125 103.25 C74.51589566 105.74034386 74.51589566 105.74034386 73.8125 108.25 C70.83398438 108.15234375 70.83398438 108.15234375 67.85546875 108.0546875 C65.49890281 108.11745538 65.49890281 108.11745538 62.8125 110.25 C59.22149971 111.20038199 55.82986024 111.38510876 52.125 111.375 C50.69607422 111.37886719 50.69607422 111.37886719 49.23828125 111.3828125 C46.8125 111.25 46.8125 111.25 44.8125 110.25 C45.1425 110.78625 45.4725 111.3225 45.8125 111.875 C47.07748755 114.87934544 47.15636442 117.01767442 46.8125 120.25 C45.625 122.1875 45.625 122.1875 43.8125 123.25 C40.67544078 123.08489162 38.95099482 122.34002163 36.3125 120.625 C33.91355979 119.05571416 33.91355979 119.05571416 31.25 119.1875 C27.64902665 120.75715505 26.60097037 122.80080714 24.8125 126.25 C24.01567197 129.98225344 24.01567197 129.98225344 23.8125 133.25 C24.8025 133.58 25.7925 133.91 26.8125 134.25 C26.5 136.625 26.5 136.625 25.8125 139.25 C22.82281747 141.24312169 22.10412532 141.46199578 18.75 141.625 C17.450625 141.83125 16.15125 142.0375 14.8125 142.25 C13.47916667 144.08333333 13.47916667 144.08333333 12.8125 146.25 C9.76326915 149.29923085 6.18228264 150.18774706 2.12890625 151.30859375 C-0.3687532 152.14464444 -0.3687532 152.14464444 -2.33203125 154.4375 C-6.80182477 157.27468768 -10.43403846 155.84576619 -15.4375 154.8125 C-27.00671221 152.69236406 -38.57300717 151.12964793 -50.25 149.75 C-52.01645917 149.53972178 -53.78289796 149.32927238 -55.54931641 149.11865234 C-58.19021723 148.80386675 -60.8311428 148.48931316 -63.472229 148.17608643 C-69.21567286 147.49293487 -74.95461422 146.77980162 -80.69140625 146.04296875 C-81.43123245 145.94835358 -82.17105865 145.8537384 -82.93330383 145.7562561 C-86.38205337 145.3149144 -89.83017226 144.86967126 -93.27758789 144.41796875 C-98.95376305 143.69253067 -104.46282491 143.02067325 -110.1875 143.25 C-110.1875 142.59 -110.1875 141.93 -110.1875 141.25 C-115.35172644 141.6803522 -118.12213619 141.93748134 -122.1875 145.25 C-123.1775 144.92 -124.1675 144.59 -125.1875 144.25 C-125.6825 143.26 -125.6825 143.26 -126.1875 142.25 C-128.50956525 141.54508733 -130.84343068 140.87787571 -133.1875 140.25 C-134.1875 139.25 -134.1875 139.25 -134.5 136.125 C-134.20315743 132.44415212 -133.93048781 131.47454833 -132.0625 128.5625 C-129.87634855 125.53197262 -129.87634855 125.53197262 -130.625 122.9375 C-132.59261169 120.81247937 -134.45108519 120.11413099 -137.1875 119.25 C-136.76785072 114.35409172 -134.60910801 112.58606781 -131.1875 109.25 C-130.32630866 107.07653432 -130.32630866 107.07653432 -130.1875 105.25 C-133.94170847 104.92743158 -133.94170847 104.92743158 -137.125 106.75 C-139.98611629 108.83081185 -141.72718462 108.75462933 -145.1875 108.25 C-147.5625 106.8125 -147.5625 106.8125 -149.1875 104.25 C-150.04283605 99.65038676 -149.69032818 96.23631681 -147.5625 92.0625 C-140.48646907 83.68298969 -140.48646907 83.68298969 -136.1875 82.25 C-132.6875 82 -132.6875 82 -129.1875 82.25 C-128.70796875 82.74242187 -128.2284375 83.23484375 -127.734375 83.7421875 C-125.73877033 85.68739812 -124.67808462 85.57708768 -121.9375 85.625 C-116.74303462 86.0075711 -114.14751681 87.9640286 -110.1875 91.25 C-110.5175 93.56 -110.8475 95.87 -111.1875 98.25 C-110.1975 98.91 -109.2075 99.57 -108.1875 100.25 C-108.01734375 99.63511719 -107.8471875 99.02023438 -107.671875 98.38671875 C-107.42953125 97.57847656 -107.1871875 96.77023438 -106.9375 95.9375 C-106.70546875 95.13699219 -106.4734375 94.33648437 -106.234375 93.51171875 C-104.92074785 90.67369591 -103.93521898 89.75329749 -101.1875 88.25 C-97.98550474 87.55559139 -94.83296576 87.0325104 -91.58789062 86.609375 C-89.34885538 86.28915184 -89.34885538 86.28915184 -86.1875 85.25 C-84.44883457 82.81948167 -84.44883457 82.81948167 -83.1875 80.25 C-79.05569886 77.86219382 -74.53980657 77.08397629 -69.8125 77.25 C-68.61625 77.25 -67.42 77.25 -66.1875 77.25 C-65.72472656 76.75886719 -65.26195312 76.26773438 -64.78515625 75.76171875 C-63.1875 74.25 -63.1875 74.25 -60.70703125 73.95703125 C-59.81371094 73.99183594 -58.92039062 74.02664062 -58 74.0625 C-57.09894531 74.08957031 -56.19789063 74.11664063 -55.26953125 74.14453125 C-54.23892578 74.19673828 -54.23892578 74.19673828 -53.1875 74.25 C-53.1875 75.24 -53.1875 76.23 -53.1875 77.25 C-51.20895742 77.44397476 -49.2296352 77.63001321 -47.25 77.8125 C-46.14785156 77.91691406 -45.04570312 78.02132812 -43.91015625 78.12890625 C-43.01167969 78.16886719 -42.11320312 78.20882812 -41.1875 78.25 C-40.8575 77.92 -40.5275 77.59 -40.1875 77.25 C-42.1675 76.59 -44.1475 75.93 -46.1875 75.25 C-45.57472388 72.28824877 -44.93377478 70.86941217 -43.1875 68.25 C-43.8475 67.26 -44.5075 66.27 -45.1875 65.25 C-40.4375 66 -40.4375 66 -38.1875 68.25 C-35.99458918 68.70662153 -33.78164111 69.070412 -31.5625 69.375 C-30.37398438 69.54257813 -29.18546875 69.71015625 -27.9609375 69.8828125 C-26.58808594 70.06457031 -26.58808594 70.06457031 -25.1875 70.25 C-25.5175 70.91 -25.8475 71.57 -26.1875 72.25 C-28.5015622 72.98075648 -30.83578869 73.65138258 -33.1875 74.25 C-30.33473863 77.18200474 -27.53670216 79.89315404 -24.1875 82.25 C-23.25715149 78.16686964 -23.25715149 78.16686964 -23.875 74.125 C-23.978125 73.50625 -24.08125 72.8875 -24.1875 72.25 C-23.5275 71.651875 -22.8675 71.05375 -22.1875 70.4375 C-21.5275 69.715625 -20.8675 68.99375 -20.1875 68.25 C-20.36155925 64.88485445 -20.67571498 62.27357005 -22.1875 59.25 C-21.84765625 56.8671875 -21.84765625 56.8671875 -21.25 54.125 C-20.95802734 52.75988281 -20.95802734 52.75988281 -20.66015625 51.3671875 C-20.42619141 50.31917969 -20.42619141 50.31917969 -20.1875 49.25 C-21.30125 49.435625 -22.415 49.62125 -23.5625 49.8125 C-27.1875 50.25 -27.1875 50.25 -29.1875 49.25 C-28.919375 48.198125 -28.65125 47.14625 -28.375 46.0625 C-27.77270069 42.15492307 -27.77270069 42.15492307 -30.375 39.375 C-33.48899314 36.91882433 -33.48899314 36.91882433 -37.1875 36.25 C-40.66186416 37.57025838 -42.04043782 39.12371841 -43.875 42.3125 C-46.15706522 46.21956522 -46.15706522 46.21956522 -47.1875 47.25 C-48.79276486 47.19152041 -50.39699321 47.10326837 -52 47 C-56.40159401 46.87977039 -56.40159401 46.87977039 -59.8125 49.75 C-60.26625 50.575 -60.72 51.4 -61.1875 52.25 C-62.6725 51.755 -62.6725 51.755 -64.1875 51.25 C-63.63021087 47.90626525 -62.83576111 45.21687001 -61.1875 42.25 C-61.744375 42.04375 -62.30125 41.8375 -62.875 41.625 C-65.13446811 40.28153247 -66.1873656 39.19842298 -67.8125 37.1875 C-69.85869397 34.24175287 -69.85869397 34.24175287 -72.1875 33.25 C-71.875 30.375 -71.875 30.375 -71.1875 27.25 C-64.74013588 22.95175725 -54.79160529 23.42557343 -47.3515625 24.7578125 C-46.28035156 25.00144531 -46.28035156 25.00144531 -45.1875 25.25 C-45.6825 26.735 -45.6825 26.735 -46.1875 28.25 C-44.56163405 29.87586595 -42.39597837 29.81907739 -40.1875 30.25 C-39.5275 30.58 -38.8675 30.91 -38.1875 31.25 C-38.538125 30.651875 -38.88875 30.05375 -39.25 29.4375 C-40.1875 27.25 -40.1875 27.25 -39.1875 24.25 C-38.15625 24.476875 -37.125 24.70375 -36.0625 24.9375 C-32.19349433 25.59052605 -32.19349433 25.59052605 -29.125 23.6875 C-26.1875 22.25 -26.1875 22.25 -23 22.8125 C-20.01962227 24.33580417 -18.74378287 25.31035457 -17.1875 28.25 C-17.1875 29.57 -17.1875 30.89 -17.1875 32.25 C-26.59752278 33.76708428 -26.59752278 33.76708428 -31.1875 31.25 C-31.1875 31.91 -31.1875 32.57 -31.1875 33.25 C-30.259375 33.435625 -29.33125 33.62125 -28.375 33.8125 C-25.1875 35.25 -25.1875 35.25 -23.6875 38.8125 C-23.1925 39.946875 -22.6975 41.08125 -22.1875 42.25 C-19.00665292 43.24401471 -16.50098824 43.25 -13.1875 43.25 C-12.8575 41.6 -12.5275 39.95 -12.1875 38.25 C-11.1975 38.58 -10.2075 38.91 -9.1875 39.25 C-9.1875 39.91 -9.1875 40.57 -9.1875 41.25 C-6.8775 41.25 -4.5675 41.25 -2.1875 41.25 C-2.661875 40.59 -3.13625 39.93 -3.625 39.25 C-5.086639 36.44365312 -5.3991404 35.20837216 -5.625 32.1875 C-6.2504085 27.8096405 -7.04679618 27.08676474 -10.1875 24.25 C-10.1875 22.93 -10.1875 21.61 -10.1875 20.25 C-10.826875 20.0025 -11.46625 19.755 -12.125 19.5 C-13.87293982 18.78655517 -15.61155829 18.04576604 -17.3125 17.2265625 C-21.76242516 15.10683464 -25.13992997 13.63444268 -30.1875 14.25 C-30.8475 14.58 -31.5075 14.91 -32.1875 15.25 C-32.001875 16.054375 -31.81625 16.85875 -31.625 17.6875 C-31.4084375 18.9559375 -31.4084375 18.9559375 -31.1875 20.25 C-32.1875 21.25 -32.1875 21.25 -35.75 21.3125 C-36.884375 21.291875 -38.01875 21.27125 -39.1875 21.25 C-39.4375 14.625 -39.4375 14.625 -37.1875 11.25 C-34.5475 11.58 -31.9075 11.91 -29.1875 12.25 C-30.1775 10.765 -30.1775 10.765 -31.1875 9.25 C-34.38850846 8.91305174 -37.11609432 9.33995387 -40.1875 10.25 C-39.5275 8.93 -38.8675 7.61 -38.1875 6.25 C-40.1675 5.92 -42.1475 5.59 -44.1875 5.25 C-44.1875 4.92 -44.1875 4.59 -44.1875 4.25 C-41.56331903 3.76595734 -38.93828403 3.28770502 -36.3125 2.8125 C-35.58546875 2.67779297 -34.8584375 2.54308594 -34.109375 2.40429688 C-22.75324487 0.36218575 -11.51216326 0.00877735 0 0 Z " fill="#54B4EB" transform="translate(255.1875,47.75)"/>
<path d="M0 0 C10.824792 0.90964639 19.00896873 2.27021399 27 10 C28.82701404 11.38338563 30.66048469 12.75828147 32.5 14.125 C36.80920289 17.33030215 36.80920289 17.33030215 37.78125 20.7421875 C37.8534375 21.48726562 37.925625 22.23234375 38 23 C33.72656908 23.36629408 31.51187196 22.40814077 28 20 C28.99 22.475 28.99 22.475 30 25 C31.95766281 25.08082094 33.91626728 25.13910778 35.875 25.1875 C36.96554687 25.22230469 38.05609375 25.25710937 39.1796875 25.29296875 C40.11039063 25.19628906 41.04109375 25.09960938 42 25 C42.99 23.515 42.99 23.515 44 22 C44.99 22.33 45.98 22.66 47 23 C46.67 23.99 46.34 24.98 46 26 C47.12148438 25.94779297 47.12148438 25.94779297 48.265625 25.89453125 C49.74289062 25.85392578 49.74289062 25.85392578 51.25 25.8125 C52.22453125 25.77769531 53.1990625 25.74289063 54.203125 25.70703125 C57.43157712 26.0452071 58.56043066 26.94643847 61 29 C64.39634206 30.13211402 67.56968787 30.94836254 71.125 31.375 C74.60572744 32.13167988 76.39610802 33.6258632 79 36 C78.95875 35.21625 78.9175 34.4325 78.875 33.625 C79 31 79 31 81 29 C83.625 29.375 83.625 29.375 86 30 C86.33 31.32 86.66 32.64 87 34 C87.99 34 88.98 34 90 34 C111.54324185 77.78759511 118.28427407 129.66671279 105 177 C104.22914063 176.83242188 103.45828125 176.66484375 102.6640625 176.4921875 C101.15972656 176.18667969 101.15972656 176.18667969 99.625 175.875 C98.62726563 175.66617188 97.62953125 175.45734375 96.6015625 175.2421875 C95.74304688 175.16226563 94.88453125 175.08234375 94 175 C93.34 175.66 92.68 176.32 92 177 C90.14976472 177.47915286 88.29815243 177.95392575 86.43847656 178.39501953 C79.28046897 180.10702931 79.28046897 180.10702931 73.75 184.66796875 C72.21966292 187.56477372 72.21966292 187.56477372 71.140625 190.4765625 C69.83009175 193.3758929 68.77013824 194.47129408 66 196 C64.68 196 63.36 196 62 196 C61.88201396 192.22943831 61.81216136 188.45936235 61.75 184.6875 C61.71648437 183.63498047 61.68296875 182.58246094 61.6484375 181.49804688 C61.55491893 173.89966307 62.93083443 167.94541441 66 161 C65.195625 160.855625 64.39125 160.71125 63.5625 160.5625 C61 160 61 160 60 159 C59.62911153 157.38315806 59.30256403 155.75600923 59 154.125 C58.47337663 151.30262787 57.9099394 148.72981821 57 146 C54.10916636 144.43998492 51.19887538 143.09360016 48.19140625 141.78125 C43.94238792 139.81197637 42.15133796 138.10648472 40 134 C38.01679982 132.96708324 36.01652194 131.9662501 34 131 C30.66415888 127.77918789 30.43364982 124.50995811 30 120 C28.68 119.67 27.36 119.34 26 119 C26.2165625 119.96099609 26.2165625 119.96099609 26.4375 120.94140625 C27.54035491 126.08040377 28.22839311 130.74695843 28 136 C31.3 136 34.6 136 38 136 C41.28571429 143.42857143 41.28571429 143.42857143 42 147 C32.19809002 155.84562608 22.12899605 156.17022766 9.5 156.0625 C8.48679687 156.05798828 7.47359375 156.05347656 6.4296875 156.04882812 C3.95306173 156.03714593 1.47656343 156.02076582 -1 156 C-0.67 157.32 -0.34 158.64 0 160 C3.96 160.99 7.92 161.98 12 163 C12.495 165.475 12.495 165.475 13 168 C8.26485928 174.68428143 1.78930036 178.49460945 -5.8125 181.0625 C-19.81037347 185.74688709 -19.81037347 185.74688709 -29.6171875 196.08203125 C-30.62432875 199.37280672 -31.33999956 202.62399777 -32 206 C-32.59997492 208.05561027 -33.24347832 210.09920698 -33.9375 212.125 C-34.35322266 213.42824219 -34.35322266 213.42824219 -34.77734375 214.7578125 C-36.37808826 217.69336314 -38.00499207 218.57737123 -41 220 C-43.31640625 220.66015625 -43.31640625 220.66015625 -45.5625 221.0625 C-48.68778278 221.63122564 -51.34407709 222.20064097 -54 224 C-54.86953298 226.1112687 -54.86953298 226.1112687 -55.3125 228.5 C-56.02734375 230.95703125 -56.02734375 230.95703125 -57 233 C-60.375 234.1875 -60.375 234.1875 -64 235 C-65.21700339 236.44118822 -66.43094284 237.8883295 -67.55078125 239.40625 C-71.6899685 243.95824029 -78.01938132 246.53572134 -84.04296875 247.23828125 C-89.86280393 247.43969631 -95.18696545 246.48085534 -100 243 C-100.8125 240.984375 -100.8125 240.984375 -101 239 C-100.505 238.01 -100.505 238.01 -100 237 C-99.81657272 234.45531049 -99.67496984 231.9227861 -99.5625 229.375 C-99.3092114 224.48953506 -98.91041143 219.94234418 -97.4609375 215.2578125 C-96.6299567 211.18741504 -96.64469017 206.95822033 -96.60546875 202.80859375 C-96.43840039 197.76706035 -95.17174674 194.88683146 -92 191 C-90.515 190.01 -90.515 190.01 -89 189 C-83.96380701 185.07585978 -83.1780051 177.93041425 -82 172 C-81.60632476 168.57890671 -81.70310265 165.41726469 -82.4140625 162.0234375 C-83.27612548 157.6455098 -83.08664561 155.59162812 -80.5625 151.8125 C-80.09585937 151.15894531 -79.62921875 150.50539063 -79.1484375 149.83203125 C-77.67403744 147.4800121 -77.57518115 145.71884067 -78 143 C-78.78375 142.814375 -79.5675 142.62875 -80.375 142.4375 C-83 141 -83 141 -84.25 137.4375 C-84.4975 136.303125 -84.745 135.16875 -85 134 C-86.96822886 132.03177114 -90.34808709 132.33751619 -93 132 C-92.10698344 130.93513145 -91.2104053 129.87324959 -90.3125 128.8125 C-89.81363281 128.22082031 -89.31476563 127.62914062 -88.80078125 127.01953125 C-88.20652344 126.35308594 -87.61226563 125.68664062 -87 125 C-85.93990723 123.77083862 -85.93990723 123.77083862 -84.85839844 122.5168457 C-81.56277905 119.61502299 -78.63516107 118.66446799 -74.46484375 117.7109375 C-73.35568604 117.43297585 -73.35568604 117.43297585 -72.22412109 117.1493988 C-70.6295599 116.75089303 -69.0331038 116.35990808 -67.43502808 115.97573853 C-63.16616932 114.94893609 -58.91114173 113.86816601 -54.65625 112.78515625 C-53.78024643 112.56306992 -52.90424286 112.34098358 -52.00169373 112.11216736 C-40.97677469 109.27961153 -30.14081015 105.82143179 -19.31420898 102.31591797 C-17.88528704 101.86285121 -16.45633367 101.40988355 -15.02734375 100.95703125 C-13.78718506 100.55460205 -12.54702637 100.15217285 -11.26928711 99.73754883 C-7.96359272 98.99178654 -6.20378448 99.05820417 -3 100 C-2.071875 100.185625 -1.14375 100.37125 -0.1875 100.5625 C0.534375 100.706875 1.25625 100.85125 2 101 C2.70382812 99.96746094 3.40765625 98.93492187 4.1328125 97.87109375 C8.79259005 92.43468661 15.34481254 90.51892533 21.875 88.0625 C23.14915542 87.56629266 24.42260142 87.06825963 25.6953125 86.56835938 C28.79039088 85.36080985 31.89139118 84.17217671 35 83 C37.15288521 87.15292207 37.69775733 90.31523858 38 95 C37.34 95.66 36.68 96.32 36 97 C36.09111938 99.53951544 36.09111938 99.53951544 37 102 C39.81509993 104.2773501 39.81509993 104.2773501 43 104 C43.33 101.36 43.66 98.72 44 96 C44.99 96 45.98 96 47 96 C46.34 94.948125 45.68 93.89625 45 92.8125 C43.2228415 89.73376063 42.56193494 87.61403672 43 84 C44.32 83.67 45.64 83.34 47 83 C47 82.01 47 81.02 47 80 C46.01 79.34 45.02 78.68 44 78 C44.81404297 77.41992188 44.81404297 77.41992188 45.64453125 76.828125 C46.71767578 76.04695313 46.71767578 76.04695313 47.8125 75.25 C48.52019531 74.73953125 49.22789062 74.2290625 49.95703125 73.703125 C52.06972195 71.94187616 53.55039229 70.33573154 55 68 C55.12904669 64.51573936 54.90942021 62.16372617 52.71484375 59.35546875 C37.63262653 45.2716016 11.4007035 47.2289547 -7.55029297 47.80517578 C-12.85693701 48.1048716 -17.97937471 48.93478508 -23.18017578 49.99365234 C-30.06690065 51.36100449 -37.30646756 51.47890551 -44.0703125 49.34765625 C-47.98299377 48.64273999 -51.66819788 51.11115307 -55 53 C-56.051875 54.11375 -56.051875 54.11375 -57.125 55.25 C-59 57 -59 57 -62.5 57.3125 C-65.15656723 57.0753065 -67.47388634 56.80835637 -70 56 C-68.35 57.98 -66.7 59.96 -65 62 C-69.94462128 63.73687886 -74.89251753 65.46394249 -79.84375 67.18188477 C-81.52861366 67.76804441 -83.21254026 68.35690465 -84.89550781 68.94848633 C-87.31075319 69.7969515 -89.72917052 70.63573826 -92.1484375 71.47265625 C-92.9036972 71.74030289 -93.65895691 72.00794952 -94.43710327 72.28370667 C-96.2726529 72.91337156 -98.13486427 73.46428642 -100 74 C-100.66 73.67 -101.32 73.34 -102 73 C-98.50239113 70.39921391 -95.57542301 68.77055554 -91.375 67.5625 C-88.09987155 66.56855554 -87.22933287 66.29591338 -85.0625 63.5 C-81.89794812 59.66417954 -77.71524107 59.10682185 -73 58 C-72.67 56.35 -72.34 54.7 -72 53 C-72.66 52.67 -73.32 52.34 -74 52 C-74.62925559 46.96595527 -74.10379244 44.64988863 -71 40.5625 C-70.01580259 39.36187029 -69.02080074 38.16966752 -68 37 C-64.61030893 37.39415012 -62.3023298 37.81284346 -59.375 39.625 C-57.12805588 41.23955462 -57.12805588 41.23955462 -54.75 40.75 C-53.00773731 40.1315342 -53.00773731 40.1315342 -52 39 C-51.84182356 35.44103015 -52.0645509 32.42255584 -53 29 C-52.14277344 29.02320313 -51.28554688 29.04640625 -50.40234375 29.0703125 C-44.16058855 29.16882949 -38.87984653 29.126753 -33 27 C-29.63116607 25.91008314 -27.44239971 26.13940007 -24 27 C-23.67 25.35 -23.34 23.7 -23 22 C-21.35 21.67 -19.7 21.34 -18 21 C-18 22.32 -18 23.64 -18 25 C-17.01 25 -16.02 25 -15 25 C-15 22.36 -15 19.72 -15 17 C-17.97 17 -20.94 17 -24 17 C-24.25 10.375 -24.25 10.375 -22 7 C-19.49609375 6.6640625 -19.49609375 6.6640625 -16.4375 6.625 C-10.19455043 6.2790052 -4.54002671 4.54002671 0 0 Z " fill="#FDC32F" transform="translate(353,129)"/>
<path d="M0 0 C2.52470748 2.42165819 3.49052155 3.81429066 4.875 7.125 C4.22829115 12.39105777 1.26643225 15.18837074 -2.5625 18.6875 C-4.0475 19.6775 -4.0475 19.6775 -5.5625 20.6875 C-4.9025 21.3475 -4.2425 22.0075 -3.5625 22.6875 C-3.9375 24.8125 -3.9375 24.8125 -4.5625 26.6875 C-5.8825 26.6875 -7.2025 26.6875 -8.5625 26.6875 C-8.35753906 27.30238281 -8.15257812 27.91726562 -7.94140625 28.55078125 C-6.81510417 31.9296875 -5.68880208 35.30859375 -4.5625 38.6875 C-5.5525 38.6875 -6.5425 38.6875 -7.5625 38.6875 C-7.5625 41.3275 -7.5625 43.9675 -7.5625 46.6875 C-9.25 47.4375 -9.25 47.4375 -11.5625 47.6875 C-14.3125 45.75 -14.3125 45.75 -16.5625 43.6875 C-15.6875 38.8125 -15.6875 38.8125 -14.5625 37.6875 C-14.94043485 33.78217317 -15.32302513 30.4059246 -16.5625 26.6875 C-20.30824332 28.0999238 -24.04247752 29.53914291 -27.76855469 31.00268555 C-29.03430685 31.49562033 -30.30284398 31.98147062 -31.57421875 32.4597168 C-39.33149011 35.38393977 -44.82608878 37.73902859 -49.5625 44.6875 C-54.5625 43.6875 -54.5625 43.6875 -56.90136719 43.05957031 C-60.07908026 42.61527355 -61.92036191 43.15112216 -64.953125 44.171875 C-66.03585693 44.52499756 -67.11858887 44.87812012 -68.23413086 45.24194336 C-70.00542358 45.8337439 -70.00542358 45.8337439 -71.8125 46.4375 C-86.38771772 51.14985974 -101.11509234 55.15142613 -115.92480469 59.05566406 C-116.7847554 59.28280594 -117.64470612 59.50994781 -118.53071594 59.74397278 C-120.14406025 60.16941828 -121.75794788 60.59281109 -123.3724823 61.01371765 C-131.97435208 62.85401303 -131.97435208 62.85401303 -138.6875 68 C-141.81728712 71.81529359 -145.07463336 75.4539805 -148.4375 79.0625 C-152.7614477 83.72554151 -157.04069081 88.42446877 -161.28515625 93.16015625 C-164.3277294 96.536734 -167.40368744 99.88230481 -170.47900391 103.22900391 C-173.33866612 106.34401092 -176.17773037 109.47610242 -179 112.625 C-182.99698378 117.0795991 -187.05324409 121.47668479 -191.11865234 125.86865234 C-194.8772798 129.93361811 -198.58999843 134.03734906 -202.28515625 138.16015625 C-204.8605988 141.01832319 -207.45947569 143.85449321 -210.0625 146.6875 C-218.92826886 155.8848771 -218.92826886 155.8848771 -226.67578125 165.953125 C-230.32397113 169.40878524 -232.25418593 169.32081776 -237.11132812 169.21484375 C-238.02333984 169.16457031 -238.93535156 169.11429688 -239.875 169.0625 C-241.27202148 169.02189453 -241.27202148 169.02189453 -242.69726562 168.98046875 C-244.98806872 168.9099825 -247.27407563 168.81154246 -249.5625 168.6875 C-248.06212384 163.72913911 -245.9930122 159.28170638 -243.66357422 154.6784668 C-243.27313934 153.89891129 -242.88270447 153.11935577 -242.48043823 152.31617737 C-241.19636549 149.75449386 -239.9067368 147.19564907 -238.6171875 144.63671875 C-237.72282889 142.85427428 -236.82888334 141.0716225 -235.93533325 139.28877258 C-233.58785014 134.60708315 -231.23591612 129.92764545 -228.88269043 125.24884033 C-225.10795567 117.74257349 -221.33867248 110.23357333 -217.57190323 102.72330666 C-216.25310526 100.09596935 -214.93160272 97.47000512 -213.60983276 94.84416199 C-212.8073436 93.24600694 -212.00494014 91.64780885 -211.20263672 90.04956055 C-210.64630554 88.94700424 -210.64630554 88.94700424 -210.07873535 87.82217407 C-208.33334358 84.88855959 -208.33334358 84.88855959 -207.5625 81.6875 C-208.10398682 81.81688965 -208.64547363 81.9462793 -209.20336914 82.07958984 C-232.07859837 87.51441029 -255.08923377 92.32079411 -278.09460449 97.1673584 C-280.21851269 97.61500013 -282.34218908 98.0637415 -284.46582031 98.51269531 C-291.16003294 99.92764984 -297.85904293 101.31705143 -304.5625 102.6875 C-305.99072873 102.98076467 -307.41895088 103.27406144 -308.84716797 103.56738281 C-312.84587069 104.38772123 -316.84583409 105.20169263 -320.84655762 106.01211548 C-322.43338894 106.33423281 -324.01990413 106.65791192 -325.6060791 106.98324585 C-327.82370169 107.43754679 -330.04251285 107.88553785 -332.26171875 108.33203125 C-333.54908936 108.59346924 -334.83645996 108.85490723 -336.1628418 109.12426758 C-343.587146 110.35427618 -343.587146 110.35427618 -347.01953125 108.0078125 C-347.79683594 107.28335938 -348.57414062 106.55890625 -349.375 105.8125 C-350.16519531 105.09320313 -350.95539063 104.37390625 -351.76953125 103.6328125 C-353.5625 101.6875 -353.5625 101.6875 -353.5625 99.6875 C-354.0884375 99.46964844 -354.614375 99.25179687 -355.15625 99.02734375 C-358.47583583 97.178938 -361.21359023 94.73649185 -364.0625 92.25 C-364.98083618 91.45625977 -364.98083618 91.45625977 -365.91772461 90.64648438 C-371.01723601 86.21659248 -376.00028888 81.66781328 -380.94140625 77.0625 C-383.53820971 74.64607833 -383.53820971 74.64607833 -386.40234375 72.5 C-387.11519531 71.901875 -387.82804687 71.30375 -388.5625 70.6875 C-388.5625 70.0275 -388.5625 69.3675 -388.5625 68.6875 C-384.81604282 67.55047478 -381.06476484 66.43019591 -377.3125 65.3125 C-376.26835937 64.99539062 -375.22421875 64.67828125 -374.1484375 64.3515625 C-370.96578394 63.40855404 -367.77083535 62.53866594 -364.5625 61.6875 C-363.5717749 61.39294922 -362.5810498 61.09839844 -361.56030273 60.79492188 C-352.56591059 58.58924098 -346.96455738 61.53142447 -339.125 65.9375 C-336.85594162 67.15192561 -334.58642791 68.36550092 -332.31640625 69.578125 C-331.32970947 70.12500977 -330.3430127 70.67189453 -329.32641602 71.23535156 C-322.39883362 74.87507068 -318.53362556 74.92286629 -310.93359375 72.55859375 C-309.61990281 72.08762596 -308.30882071 71.60933758 -307 71.125 C-306.27099991 70.86151764 -305.54199982 70.59803528 -304.79090881 70.3265686 C-302.37909724 69.45318513 -299.97085953 68.57035308 -297.5625 67.6875 C-295.86669138 67.071452 -294.17064106 66.45606898 -292.47436523 65.84130859 C-288.81614478 64.51444431 -285.15933445 63.1837848 -281.50341797 61.85058594 C-275.18479691 59.5477902 -268.86036739 57.2611842 -262.53515625 54.9765625 C-260.36523243 54.19271372 -258.19531054 53.4088596 -256.02539062 52.625 C-254.43561401 52.05072266 -254.43561401 52.05072266 -252.8137207 51.46484375 C-247.69930593 49.61659034 -242.58591787 47.76550336 -237.47265625 45.9140625 C-236.11612694 45.42288437 -236.11612694 45.42288437 -234.73219299 44.92178345 C-232.67560857 44.17707779 -230.61905088 43.4322983 -228.5625 42.6875 C-229.20499411 37.91219498 -229.68367269 35.97145878 -233.5625 33 C-237.47013052 29.96460843 -237.47013052 29.96460843 -238.5625 26.6875 C-241.28457775 25.35552414 -243.93714098 24.20830684 -246.75390625 23.11328125 C-247.57374496 22.78458542 -248.39358368 22.45588959 -249.23826599 22.11723328 C-251.86313014 21.06764684 -254.49384814 20.03370962 -257.125 19 C-258.90340138 18.29203612 -260.6814019 17.58306438 -262.45898438 16.87304688 C-266.82225383 15.13279324 -271.19083631 13.40655169 -275.5625 11.6875 C-275.5625 11.0275 -275.5625 10.3675 -275.5625 9.6875 C-272.84235453 8.63424502 -270.11606703 7.62114926 -267.375 6.625 C-266.62541016 6.33044922 -265.87582031 6.03589844 -265.10351562 5.73242188 C-258.01779985 3.21239743 -251.93672419 3.74892684 -244.5625 4.6875 C-243.17088695 4.8541816 -241.77920045 5.0202508 -240.38745117 5.18579102 C-235.67067501 5.75842066 -230.96056471 6.3786852 -226.25 7 C-223.65974835 7.33777697 -221.06933743 7.67431328 -218.47891235 8.01075745 C-216.72998316 8.2379565 -214.98110206 8.46552608 -213.23226929 8.69346619 C-203.58640702 9.94933236 -193.93365279 11.1485429 -184.2800293 12.34301758 C-177.98658383 13.12445125 -171.6947341 13.91786737 -165.40625 14.73828125 C-164.19130859 14.89594971 -162.97636719 15.05361816 -161.72460938 15.21606445 C-158.5625 15.6875 -158.5625 15.6875 -156.60552979 16.28445435 C-152.93318849 17.00892797 -149.50218431 15.19835353 -146.078125 13.94140625 C-145.26253113 13.65144272 -144.44693726 13.36147919 -143.60662842 13.06272888 C-141.00488134 12.13514719 -138.40876333 11.19280803 -135.8125 10.25 C-134.04852776 9.61816074 -132.28420847 8.9872895 -130.51953125 8.35742188 C-126.19641489 6.81198116 -121.87828741 5.25328487 -117.5625 3.6875 C-118.2225 3.23375 -118.8825 2.78 -119.5625 2.3125 C-120.2225 1.77625 -120.8825 1.24 -121.5625 0.6875 C-121.5625 0.0275 -121.5625 -0.6325 -121.5625 -1.3125 C-120.84964844 -1.24289063 -120.13679688 -1.17328125 -119.40234375 -1.1015625 C-113.73852586 -0.63979487 -113.73852586 -0.63979487 -108.58984375 -2.578125 C-107.48837682 -3.65094858 -106.40094858 -4.73837682 -105.328125 -5.83984375 C-102.27104358 -8.38966608 -98.47462809 -9.03546089 -94.5625 -9.3125 C-94.2325 -8.9825 -93.9025 -8.6525 -93.5625 -8.3125 C-86.36395171 -6.99702925 -79.75185994 -7.29446228 -72.625 -8.75 C-51.07454605 -12.95299301 -18.35589382 -14.42018372 0 0 Z " fill="#F8F8F8" transform="translate(404.5625,186.3125)"/>
<path d="M0 0 C1.69752187 0.25245197 3.38471545 0.57645775 5.0625 0.9375 C5.98160156 1.13214844 6.90070313 1.32679688 7.84765625 1.52734375 C8.55792969 1.68332031 9.26820313 1.83929688 10 2 C10.9932043 5.78115356 10.96415089 8.14828929 9.76953125 11.859375 C9.46756836 12.7975708 9.16560547 13.7357666 8.85449219 14.70239258 C8.51063477 15.70810303 8.16677734 16.71381348 7.8125 17.75 C7.27544434 19.33107544 7.27544434 19.33107544 6.72753906 20.9440918 C-7.32628576 60.91002552 -33.0549102 97.54706082 -68 122 C-68.63019043 122.44214844 -69.26038086 122.88429688 -69.90966797 123.33984375 C-94.12674359 140.0977515 -121.14110709 151.94199747 -150 158 C-150.75522949 158.16226074 -151.51045898 158.32452148 -152.28857422 158.49169922 C-165.64285401 161.20057448 -179.11553675 161.30942241 -192.6875 161.375 C-193.54974182 161.38294586 -194.41198364 161.39089172 -195.300354 161.39907837 C-211.10818551 161.5108828 -226.48027346 159.76218461 -241.8125 155.8125 C-242.62396484 155.60455811 -243.43542969 155.39661621 -244.27148438 155.18237305 C-279.23025103 145.86603506 -309.94930986 127.94815108 -336 103 C-336.49886719 102.52836426 -336.99773437 102.05672852 -337.51171875 101.57080078 C-352.33082458 87.50884079 -363.94810667 71.06806552 -374.0625 53.375 C-374.44486816 52.71193848 -374.82723633 52.04887695 -375.22119141 51.36572266 C-377.12391479 47.95933261 -378.64312088 44.91838704 -379 41 C-378 40 -378 40 -375.734375 39.5703125 C-373 40 -373 40 -370.640625 42.4921875 C-369.82907015 43.60927284 -369.03297054 44.73769703 -368.25 45.875 C-367.37978447 47.07414946 -366.50602809 48.27073664 -365.62890625 49.46484375 C-365.1920752 50.06280762 -364.75524414 50.66077148 -364.30517578 51.27685547 C-361.73953062 54.66412137 -358.83144999 57.73951225 -355.953125 60.859375 C-354.37097392 62.59341258 -352.89053119 64.34699382 -351.4375 66.1875 C-348.25575756 69.85874127 -344.70293694 72.86720732 -341 76 C-340.04996094 76.83789062 -339.09992188 77.67578125 -338.12109375 78.5390625 C-320.72745643 93.78402597 -300.48936445 105.51394471 -279 114 C-278.2771582 114.2897168 -277.55431641 114.57943359 -276.80957031 114.87792969 C-266.27516973 119.03278789 -255.62605349 121.97105834 -244.5625 124.375 C-243.41426758 124.62580322 -242.26603516 124.87660645 -241.08300781 125.13500977 C-188.97640288 135.90365811 -132.45374648 123.44472288 -88.24072266 94.51367188 C-76.62654991 86.66796791 -66.06165492 77.73086079 -56 68 C-54.80503906 66.88238281 -54.80503906 66.88238281 -53.5859375 65.7421875 C-38.24547989 51.05220866 -26.30835562 32.28929638 -16.74023438 13.46044922 C-14.41296136 9.00761214 -12.81080296 6.05955216 -8 4 C-7.34515625 3.69835937 -6.6903125 3.39671875 -6.015625 3.0859375 C-5.14164062 2.73402344 -5.14164062 2.73402344 -4.25 2.375 C-1.19881062 1.32404566 -1.19881062 1.32404566 0 0 Z " fill="#43A6E0" transform="translate(447,303)"/>
<path d="M0 0 C2.97 0.33 5.94 0.66 9 1 C8.67 1.99 8.34 2.98 8 4 C10.64 3.67 13.28 3.34 16 3 C16.99 4.98 16.99 4.98 18 7 C15.36 7 12.72 7 10 7 C9.40267181 9.76264289 9 12.16032769 9 15 C10.98 15 12.96 15 15 15 C14.67 13.35 14.34 11.7 14 10 C17.46685517 7.68876322 19.32611506 7.76911932 23.37890625 8.328125 C28.33043602 9.59736959 32.95766872 11.87669446 37 15 C38.21875 17.62109375 38.21875 17.62109375 39 20 C39.7734375 20.6496875 39.7734375 20.6496875 40.5625 21.3125 C42.30091915 23.35325292 42.29754595 24.43188477 42.5625 27.0625 C42.58516344 31.00162681 42.58516344 31.00162681 45 33 C45 33.99 45 34.98 45 36 C42.8125 36.75 42.8125 36.75 40 37 C37.1875 35.0625 37.1875 35.0625 35 33 C35 34.65 35 36.3 35 38 C31.3633864 39.25882778 28.63916044 39.28886932 25 38 C23.78337489 36.02569021 22.91632395 34.01255312 22.01171875 31.87890625 C21.06471612 29.71063204 21.06471612 29.71063204 18.25 28.5 C17.5075 28.335 16.765 28.17 16 28 C16 27.34 16 26.68 16 26 C16.67546875 26.0721875 17.3509375 26.144375 18.046875 26.21875 C18.93890625 26.3115625 19.8309375 26.404375 20.75 26.5 C21.63171875 26.5928125 22.5134375 26.685625 23.421875 26.78125 C26.23304835 27.05636313 26.23304835 27.05636313 30 27 C28.3511503 21.70148021 28.3511503 21.70148021 24.1875 18.375 C20.17155236 17.90253557 18.54933778 19.18911338 15 21 C11.125 20.6875 11.125 20.6875 8 20 C8.495 22.97 8.495 22.97 9 26 C7.02 25.67 5.04 25.34 3 25 C2.67 25.66 2.34 26.32 2 27 C1.01 24.525 1.01 24.525 0 22 C0.495 21.505 0.495 21.505 1 21 C-6.09297135 18.93328341 -16.229809 18.73580077 -23 22 C-24.69165301 24.98283157 -24.69165301 24.98283157 -25 28 C-24.443125 28.20625 -23.88625 28.4125 -23.3125 28.625 C-21.05303189 29.96846753 -20.0001344 31.05157702 -18.375 33.0625 C-16.32880603 36.00824713 -16.32880603 36.00824713 -14 37 C-14.2165625 37.8353125 -14.2165625 37.8353125 -14.4375 38.6875 C-15.02769128 41.11384195 -15.523429 43.54906345 -16 46 C-12.89663008 45.30681137 -12.89663008 45.30681137 -11.61328125 42.91796875 C-10.81470703 41.96857422 -10.81470703 41.96857422 -10 41 C-7.73046875 40.92578125 -7.73046875 40.92578125 -5.1875 41.3125 C-2.51598353 41.55021765 -2.51598353 41.55021765 0 41 C1.9715139 38.87249819 3.22168791 36.67534145 4.640625 34.15234375 C6 32 6 32 9 30.1875 C12 30 12 30 15.25 31.5625 C18.08069529 34.07152537 19.28043095 35.31220863 20 39 C19.125 41.8125 19.125 41.8125 18 44 C20.97 44 23.94 44 27 44 C26.90460938 44.75925781 26.80921875 45.51851562 26.7109375 46.30078125 C26.60007813 47.29464844 26.48921875 48.28851563 26.375 49.3125 C26.25898438 50.29863281 26.14296875 51.28476563 26.0234375 52.30078125 C25.74523005 55.22657416 25.74523005 55.22657416 28 58 C28.375 60.4375 28.375 60.4375 28 63 C27.319375 63.639375 26.63875 64.27875 25.9375 64.9375 C25.298125 65.618125 24.65875 66.29875 24 67 C24.3355782 70.01349195 24.3355782 70.01349195 25 73 C24.0625 75.375 24.0625 75.375 23 77 C19.56247993 75.4722133 16.81046312 73.49818944 14 71 C14 70.34 14 69.68 14 69 C16.31 68.01 18.62 67.02 21 66 C20.16855469 65.89042969 19.33710938 65.78085938 18.48046875 65.66796875 C17.39378906 65.50941406 16.30710938 65.35085937 15.1875 65.1875 C13.56908203 64.96126953 13.56908203 64.96126953 11.91796875 64.73046875 C8.83872348 63.95962689 8.06119918 63.25927238 6 61 C5.01 61 4.02 61 3 61 C3.66 61.99 4.32 62.98 5 64 C4.525625 64.433125 4.05125 64.86625 3.5625 65.3125 C1.76313043 67.02309613 1.76313043 67.02309613 1 70 C3.31 70.33 5.62 70.66 8 71 C7.34 71.99 6.68 72.98 6 74 C1.71 73.67 -2.58 73.34 -7 73 C-6.505 71.515 -6.505 71.515 -6 70 C-7.60332791 69.91878076 -9.20784026 69.86070866 -10.8125 69.8125 C-11.70582031 69.77769531 -12.59914063 69.74289063 -13.51953125 69.70703125 C-16.49394547 70.05834002 -17.01238276 70.89057892 -19 73 C-20.9129204 73 -22.82653948 72.9929219 -24.73828125 72.92578125 C-28.69493999 73.05561979 -32.56736883 74.01625063 -36 76 C-36.42796875 76.82886719 -36.8559375 77.65773438 -37.296875 78.51171875 C-39 81 -39 81 -42.43359375 82.0390625 C-43.76490473 82.25587978 -45.09997177 82.45059555 -46.4375 82.625 C-52.82144605 83.43498523 -52.82144605 83.43498523 -58 87 C-58.89405175 89.02006441 -58.89405175 89.02006441 -59.25 91.1875 C-59.4975 92.445625 -59.745 93.70375 -60 95 C-60.99 95 -61.98 95 -63 95 C-64.125 93.3125 -64.125 93.3125 -65 91 C-64.125 88.25 -64.125 88.25 -63 86 C-63.598125 85.71125 -64.19625 85.4225 -64.8125 85.125 C-67 84 -67 84 -70 82 C-72.28571577 81.67287763 -74.53864768 81.5605032 -76.84375 81.44140625 C-79.46191646 80.90544101 -80.18668748 79.8876286 -82 78 C-87.01678577 77.44257936 -90.04043603 77.85265428 -94 81 C-99.59529683 86.82148917 -99.59529683 86.82148917 -101.25 94.4375 C-101.27578125 95.21996094 -101.3015625 96.00242187 -101.328125 96.80859375 C-100.92058986 99.53034629 -100.18774308 100.37584413 -98 102 C-94.54327925 102.4412835 -92.75881336 102.5748586 -89.9375 100.4375 C-88 99 -88 99 -85.25 99.3125 C-84.5075 99.539375 -83.765 99.76625 -83 100 C-83.41964928 104.89590828 -85.57839199 106.66393219 -89 110 C-89.86119134 112.17346568 -89.86119134 112.17346568 -90 114 C-88.576875 114.37125 -88.576875 114.37125 -87.125 114.75 C-84 116 -84 116 -82.375 117.6875 C-81.85290206 120.90710397 -83.33777377 122.47961907 -85.0390625 125.1171875 C-86.5375978 128.05334204 -86.26243878 130.78512491 -86 134 C-85.43410156 134.19335938 -84.86820313 134.38671875 -84.28515625 134.5859375 C-83.55167969 134.84632813 -82.81820312 135.10671875 -82.0625 135.375 C-81.33160156 135.63023437 -80.60070312 135.88546875 -79.84765625 136.1484375 C-78 137 -78 137 -77 139 C-73.75016865 137.91215032 -73.75016865 137.91215032 -71 136 C-68.32941149 135.85884839 -65.67567762 135.95752893 -63 136 C-63 136.99 -63 137.98 -63 139 C-65.10251861 139.67184618 -67.20707763 140.33730968 -69.3125 141 C-70.48425781 141.37125 -71.65601563 141.7425 -72.86328125 142.125 C-76 143 -76 143 -79 143 C-79 143.66 -79 144.32 -79 145 C-78.43909668 145.1549292 -77.87819336 145.3098584 -77.30029297 145.46948242 C-69.72904414 147.6430067 -62.43920026 150.39874522 -55.125 153.3125 C-53.91585937 153.77333984 -52.70671875 154.23417969 -51.4609375 154.70898438 C-41.01162447 158.88290442 -41.01162447 158.88290442 -38 165 C-36.40881673 166.46301615 -36.40881673 166.46301615 -34.8125 167.5 C-31.50489394 170.44009427 -31.48435357 171.75169399 -31 176 C-42.39954732 181.05167213 -54.18459602 185.05130485 -65.9375 189.1875 C-69.01561115 190.27362283 -72.09338058 191.36070188 -75.17079163 192.44880676 C-77.07350914 193.12127209 -78.97667628 193.79246695 -80.88035583 194.46220398 C-84.26274248 195.65547484 -87.61970829 196.84175888 -90.93188477 198.2199707 C-93 199 -93 199 -96 199 C-97.03087881 193.71566323 -97.31611358 188.48895352 -97.5625 183.125 C-97.60568359 182.24585938 -97.64886719 181.36671875 -97.69335938 180.4609375 C-97.79869339 178.30744203 -97.89977649 176.15373936 -98 174 C-93.93859866 172.89176631 -89.87568038 171.78919157 -85.8125 170.6875 C-84.68134766 170.37876953 -83.55019531 170.07003906 -82.38476562 169.75195312 C-75.44227259 167.87293079 -68.49917256 166.18255329 -61.45581055 164.72192383 C-60.64539307 164.48368896 -59.83497559 164.2454541 -59 164 C-58.67 163.34 -58.34 162.68 -58 162 C-62.30572602 163.09993605 -66.61070674 164.20273142 -70.91503906 165.30810547 C-72.37740577 165.6832287 -73.8399683 166.05758944 -75.30273438 166.43115234 C-77.41328877 166.9702926 -79.52310823 167.51223142 -81.6328125 168.0546875 C-82.90012207 168.37937012 -84.16743164 168.70405273 -85.47314453 169.03857422 C-87.74104355 169.65680669 -89.99131728 170.34632027 -92.21044922 171.12158203 C-95 172 -95 172 -99 172 C-98.625 169.0625 -98.625 169.0625 -98 166 C-97.34 165.67 -96.68 165.34 -96 165 C-95.835 163.96875 -95.67 162.9375 -95.5 161.875 C-94.2893535 156.99239264 -90.50439163 155.24565621 -86.41015625 152.7734375 C-83.67350602 150.7597597 -82.44648274 149.05841286 -81 146 C-80.74900133 142.29106092 -80.74900133 142.29106092 -81 139 C-81.99 138.67 -82.98 138.34 -84 138 C-84 138.66 -84 139.32 -84 140 C-87.53864252 138.82045249 -88.29145419 137.4772126 -90.04296875 134.2890625 C-91.17470409 131.58213633 -91.71989913 128.93461465 -92.3125 126.0625 C-93.53033529 120.6196607 -95.44541677 117.61792976 -99.4765625 113.81640625 C-101.33916585 111.59560995 -101.63953837 109.83985312 -102 107 C-103.485 106.814375 -103.485 106.814375 -105 106.625 C-111.66197462 104.79329618 -115.37898951 97.43151574 -119 92 C-118.76072994 89.65515344 -118.4054103 87.32189536 -118 85 C-118.05285156 84.28972656 -118.10570313 83.57945312 -118.16015625 82.84765625 C-118.45319956 75.1903071 -114.22477263 70.96943424 -109.35107422 65.61279297 C-107.58489121 63.72424383 -105.79695281 61.85924853 -104 60 C-103.50048828 59.47164551 -103.00097656 58.94329102 -102.48632812 58.39892578 C-96.11676333 51.66494414 -89.28931154 45.71029174 -82 40 C-80.99195313 39.18660156 -79.98390625 38.37320313 -78.9453125 37.53515625 C-66.36374495 27.48194199 -52.54488513 19.83671587 -38 13 C-37.3714209 12.70432129 -36.7428418 12.40864258 -36.09521484 12.10400391 C-21.01988556 5.10516682 -21.01988556 5.10516682 -14 5 C-12.66356118 5.66041918 -11.33018878 6.32708097 -10 7 C-7.24787881 6.96986729 -4.72895247 6.45482541 -2 6 C-2 7.32 -2 8.64 -2 10 C-1.01 10 -0.02 10 1 10 C1.66 8.02 2.32 6.04 3 4 C2.01 3.67 1.02 3.34 0 3 C0 2.01 0 1.02 0 0 Z " fill="#FCC330" transform="translate(208,53)"/>
<path d="M0 0 C0.99 0 1.98 0 3 0 C4.49119231 2.98238462 4.35629279 5.87181896 4.5625 9.1875 C4.64628906 10.48042969 4.73007812 11.77335938 4.81640625 13.10546875 C4.98795494 16.74449087 5.03306904 20.35768091 5 24 C6.19496094 23.97679687 7.38992188 23.95359375 8.62109375 23.9296875 C29.63067909 23.64049388 29.63067909 23.64049388 37 29 C37.99 29.99 37.99 29.99 39 31 C38.91200473 34.34382025 38.35216988 35.65850194 35.9375 38 C34.968125 38.66 33.99875 39.32 33 40 C32.46125244 40.42176514 31.92250488 40.84353027 31.36743164 41.27807617 C25.51106454 45.52072346 20.56516333 45.61383571 13.5 45.3125 C12.48679687 45.28994141 11.47359375 45.26738281 10.4296875 45.24414062 C7.95154633 45.1856939 5.47658434 45.10382997 3 45 C3.495 46.98 3.495 46.98 4 49 C7.96 49.99 11.92 50.98 16 52 C16.495 54.475 16.495 54.475 17 57 C12.26485928 63.68428143 5.78930036 67.49460945 -1.8125 70.0625 C-15.81037347 74.74688709 -15.81037347 74.74688709 -25.6171875 85.08203125 C-26.62432875 88.37280672 -27.33999956 91.62399777 -28 95 C-28.59997492 97.05561027 -29.24347832 99.09920698 -29.9375 101.125 C-30.21464844 101.99382812 -30.49179687 102.86265625 -30.77734375 103.7578125 C-32.37808826 106.69336314 -34.00499207 107.57737123 -37 109 C-39.31640625 109.66015625 -39.31640625 109.66015625 -41.5625 110.0625 C-44.68778278 110.63122564 -47.34407709 111.20064097 -50 113 C-50.86953298 115.1112687 -50.86953298 115.1112687 -51.3125 117.5 C-52.02734375 119.95703125 -52.02734375 119.95703125 -53 122 C-56.375 123.1875 -56.375 123.1875 -60 124 C-61.21700339 125.44118822 -62.43094284 126.8883295 -63.55078125 128.40625 C-67.6899685 132.95824029 -74.01938132 135.53572134 -80.04296875 136.23828125 C-85.86280393 136.43969631 -91.18696545 135.48085534 -96 132 C-96.8125 129.984375 -96.8125 129.984375 -97 128 C-96.505 127.01 -96.505 127.01 -96 126 C-95.81657272 123.45531049 -95.67496984 120.9227861 -95.5625 118.375 C-95.3092114 113.48953506 -94.91041143 108.94234418 -93.4609375 104.2578125 C-92.6299567 100.18741504 -92.64469017 95.95822033 -92.60546875 91.80859375 C-92.43840039 86.76706035 -91.17174674 83.88683146 -88 80 C-86.515 79.01 -86.515 79.01 -85 78 C-79.96380701 74.07585978 -79.1780051 66.93041425 -78 61 C-77.60632476 57.57890671 -77.70310265 54.41726469 -78.4140625 51.0234375 C-79.27181557 46.66739741 -79.07932557 44.54752381 -76.625 40.75 C-76.16351563 40.12609375 -75.70203125 39.5021875 -75.2265625 38.859375 C-73.93345804 36.89912748 -73.43606387 35.29187057 -73 33 C-64.80520064 33.52513048 -56.72778787 34.38418 -48.60546875 35.59765625 C-38.61260243 36.71278651 -31.21639509 34.34181961 -21.875 31 C-19.85271279 30.28034203 -17.82940065 29.56463174 -15.80178833 28.86010742 C-13.96721313 28.22227616 -12.13749783 27.57051644 -10.30810547 26.91796875 C-7 26 -7 26 -1 26 C-0.67 17.42 -0.34 8.84 0 0 Z " fill="#DBA10F" transform="translate(349,240)"/>
<path d="M0 0 C0.33 0 0.66 0 1 0 C1.02763357 1.35404497 1.04667422 2.70826555 1.0625 4.0625 C1.07410156 4.89136719 1.08570313 5.72023437 1.09765625 6.57421875 C1 9 1 9 0 12.375 C0 18.45621808 4.20743 22.48931024 8 27 C9.88609041 29.24659548 9.88609041 29.24659548 12.875 29.625 C16.86160558 31.37910646 17.28262638 33.00860461 18.9296875 36.86328125 C20.06893903 39.13762646 21.34896909 40.56893958 23.125 42.375 C26.30705551 45.85935079 26.82281866 48.98031859 27.5078125 53.55859375 C28.26293583 57.30424519 29.85794601 59.8538582 32 63 C32.66 63.33 33.32 63.66 34 64 C34 63.34 34 62.68 34 62 C35.98 62.495 35.98 62.495 38 63 C38.31349317 66.91866466 38.24669026 69.47444249 36.5625 73.0625 C34.19540917 75.77599437 32.45658403 77.05076519 29.4375 78.875 C24.55973428 81.89151301 23.41672273 84.52200543 22 90 C21.34 90 20.68 90 20 90 C19.67 91.98 19.34 93.96 19 96 C21.81342277 95.27425428 24.62589133 94.54522389 27.4375 93.8125 C28.28973145 93.59053955 29.14196289 93.3685791 30.02001953 93.13989258 C36.5541983 91.42084888 43.03401843 89.55555165 49.47827148 87.5246582 C53.08801799 86.42008733 56.21944402 85.74455703 60 86 C59.505 87.485 59.505 87.485 59 89 C57.19677734 89.73608398 57.19677734 89.73608398 54.8359375 90.24609375 C53.96759277 90.44178955 53.09924805 90.63748535 52.20458984 90.83911133 C51.2708252 91.03657959 50.33706055 91.23404785 49.375 91.4375 C47.45793019 91.86538528 45.54126488 92.29508671 43.625 92.7265625 C42.19800781 93.04415527 42.19800781 93.04415527 40.7421875 93.36816406 C35.7306348 94.52289148 30.78831361 95.91783296 25.8359375 97.30078125 C23 98 23 98 20 98 C20.33 98.66 20.66 99.32 21 100 C21.15306901 101.81171098 21.24946661 103.6283794 21.31640625 105.4453125 C21.35830078 106.52167969 21.40019531 107.59804687 21.44335938 108.70703125 C21.48267578 109.83496094 21.52199219 110.96289062 21.5625 112.125 C21.60568359 113.26066406 21.64886719 114.39632812 21.69335938 115.56640625 C21.7996604 118.37747768 21.90169405 121.18863945 22 124 C17.96677328 125.54390666 13.92231367 127.05595017 9.875 128.5625 C8.73289063 129.00013672 7.59078125 129.43777344 6.4140625 129.88867188 C5.30546875 130.29794922 4.196875 130.70722656 3.0546875 131.12890625 C1.53077393 131.70233765 1.53077393 131.70233765 -0.02392578 132.28735352 C-5.38806861 133.5718435 -9.45313181 132.02019752 -14.265625 129.63671875 C-15.23886719 129.16169922 -16.21210937 128.68667969 -17.21484375 128.19726562 C-18.21644531 127.69904297 -19.21804687 127.20082031 -20.25 126.6875 C-27.40293414 123.15778414 -34.54152609 119.8374629 -42 117 C-43.12544735 76.11875031 -25.36557134 35.67185873 -2 3 C-1.34 2.01 -0.68 1.02 0 0 Z " fill="#54B4EC" transform="translate(90,129)"/>
<path d="M0 0 C-0.64015452 5.78171304 -3.54740687 8.12557199 -7.80078125 11.80859375 C-11.35783493 14.24511037 -14.69770517 15.62378563 -18.75 17 C-32.77751889 21.72832572 -32.77751889 21.72832572 -42.6171875 32.08203125 C-43.62432875 35.37280672 -44.33999956 38.62399777 -45 42 C-45.59997492 44.05561027 -46.24347832 46.09920698 -46.9375 48.125 C-47.35322266 49.42824219 -47.35322266 49.42824219 -47.77734375 50.7578125 C-49.37808826 53.69336314 -51.00499207 54.57737123 -54 56 C-56.31640625 56.66015625 -56.31640625 56.66015625 -58.5625 57.0625 C-61.68778278 57.63122564 -64.34407709 58.20064097 -67 60 C-67.86953298 62.1112687 -67.86953298 62.1112687 -68.3125 64.5 C-69.02734375 66.95703125 -69.02734375 66.95703125 -70 69 C-73.375 70.1875 -73.375 70.1875 -77 71 C-78.21700339 72.44118822 -79.43094284 73.8883295 -80.55078125 75.40625 C-84.6899685 79.95824029 -91.01938132 82.53572134 -97.04296875 83.23828125 C-102.86280393 83.43969631 -108.18696545 82.48085534 -113 79 C-113.8125 76.984375 -113.8125 76.984375 -114 75 C-113.505 74.01 -113.505 74.01 -113 73 C-112.81657272 70.45531049 -112.67496984 67.9227861 -112.5625 65.375 C-112.3092114 60.48953506 -111.91041143 55.94234418 -110.4609375 51.2578125 C-109.6299567 47.18741504 -109.64469017 42.95822033 -109.60546875 38.80859375 C-109.41334426 33.01095476 -107.51217235 29.42202262 -103.3671875 25.42578125 C-102.87476563 25.05839844 -102.38234375 24.69101562 -101.875 24.3125 C-98.8728563 22.13502289 -98.8728563 22.13502289 -97 19 C-94.5390625 18.015625 -94.5390625 18.015625 -91.625 17.25 C-90.66851562 16.98703125 -89.71203125 16.7240625 -88.7265625 16.453125 C-86 16 -86 16 -82 17 C-87.94 29.87 -93.88 42.74 -100 56 C-95.71 56 -91.42 56 -87 56 C-86.34 54.68 -85.68 53.36 -85 52 C-84.15464935 50.89754878 -83.2680924 49.8257396 -82.34765625 48.78515625 C-81.82413574 48.18815918 -81.30061523 47.59116211 -80.76123047 46.97607422 C-79.92035889 46.02885498 -79.92035889 46.02885498 -79.0625 45.0625 C-77.87826902 43.71279843 -76.69468576 42.36252829 -75.51171875 41.01171875 C-74.9192334 40.3367334 -74.32674805 39.66174805 -73.71630859 38.96630859 C-71.2388427 36.12797142 -68.80266866 33.25594572 -66.375 30.375 C-65.93551025 29.85373535 -65.49602051 29.3324707 -65.04321289 28.79541016 C-64.15460705 27.74119828 -63.26617946 26.68683613 -62.37792969 25.63232422 C-60.91456919 23.89879688 -59.44613008 22.16967406 -57.9765625 20.44140625 C-57.47850098 19.85504395 -56.98043945 19.26868164 -56.46728516 18.66455078 C-55.51726234 17.54633757 -54.56646575 16.4287811 -53.61474609 15.31201172 C-51.80480175 13.17903269 -50.06424036 11.09893702 -48.5390625 8.75 C-46.40744602 6.32623304 -44.47117531 5.91296841 -41.375 5.0625 C-40.2303125 4.73765625 -39.085625 4.4128125 -37.90625 4.078125 C-36.97232422 3.82192383 -36.97232422 3.82192383 -36.01953125 3.56054688 C-33.0555751 2.73786272 -30.10811791 1.86114466 -27.15869141 0.98803711 C-24.95878988 0.33728583 -22.75692013 -0.30640906 -20.5546875 -0.94921875 C-13.10775202 -3.15056561 -7.23155441 -3.49913923 0 0 Z " fill="#FDC32F" transform="translate(366,293)"/>
<path d="M0 0 C0.495 0.99 0.495 0.99 1 2 C-0.55262988 5.99247684 -2.75506327 7.54932866 -6.3125 9.625 C-11.18675443 12.68320157 -12.95841064 16.12526607 -15.50390625 21.16796875 C-17.98806629 25.87036047 -20.51270744 30.01319012 -25 33 C-28.63423528 33.49066334 -32.1404051 33.50013083 -35.8046875 33.53125 C-39.0228619 33.69878301 -39.0228619 33.69878301 -40.8828125 35.71875 C-41.80808316 37.26263019 -42.6824251 38.83799149 -43.5078125 40.4375 C-46.43760743 45.46877088 -51.67656388 50.62647659 -57.1171875 52.875 C-59 53 -59 53 -62 51 C-62.33 52.98 -62.66 54.96 -63 57 C-70.14277988 59.17099827 -77.30666649 61.25292897 -84.5 63.25 C-85.48742187 63.53101563 -86.47484375 63.81203125 -87.4921875 64.1015625 C-88.90371094 64.49214844 -88.90371094 64.49214844 -90.34375 64.890625 C-91.19130859 65.12813477 -92.03886719 65.36564453 -92.91210938 65.61035156 C-95 66 -95 66 -97 65 C-96.01 63.68 -95.02 62.36 -94 61 C-94.33 60.34 -94.66 59.68 -95 59 C-94.75523214 50.09421569 -92.43552363 41.72056753 -89.015625 33.56640625 C-87.65017605 30.11602179 -86.62379609 26.59910127 -85.61328125 23.03125 C-85 21 -85 21 -84 19 C-82.27392578 18.36499023 -82.27392578 18.36499023 -79.9453125 17.80859375 C-79.04159912 17.59058105 -78.13788574 17.37256836 -77.20678711 17.14794922 C-76.18979736 16.91350098 -75.17280762 16.67905273 -74.125 16.4375 C-72.51927124 16.05875732 -72.51927124 16.05875732 -70.88110352 15.67236328 C-57.78206188 12.63519102 -44.60521369 9.94206306 -31.43212891 7.24780273 C-20.8833883 5.08168648 -10.4204947 2.71903024 0 0 Z " fill="#FDC430" transform="translate(197,267)"/>
<path d="M0 0 C-1.37162652 6.2894094 -2.97035542 12.21981856 -5.5625 18.125 C-8.78208319 25.52422282 -11.65343429 34.03969713 -9 42 C-12.40709091 47.21379911 -15.02953047 48.8484575 -21.19921875 50.3359375 C-21.87547806 50.50501617 -22.55173737 50.67409485 -23.24848938 50.84829712 C-25.39032173 51.37826787 -27.53811244 51.8766682 -29.6875 52.375 C-31.14176687 52.73107425 -32.59555033 53.08912899 -34.04882812 53.44921875 C-44.46322524 56 -44.46322524 56 -47 56 C-54.51809694 38.23515671 -61.11647108 20.3224087 -63 1 C-61.70684939 1.95632999 -60.41553147 2.91513851 -59.125 3.875 C-58.40570313 4.40867187 -57.68640625 4.94234375 -56.9453125 5.4921875 C-55 7 -55 7 -53 9 C-42.87339652 9.63681959 -31.8490989 6.03490997 -22 3.9375 C-19.32340152 3.37123168 -16.64644954 2.80678208 -13.96875 2.2457428 C-12.31310565 1.89849144 -10.65812343 1.54806416 -9.00390625 1.19407654 C-5.94743325 0.5502813 -3.13311392 0 0 0 Z " fill="#54B4EC" transform="translate(113,286)"/>
<path d="M0 0 C2.92889416 0.13544019 5.38005753 0.26480775 7.96484375 1.71875 C9.3858298 4.38309884 9.16251636 6.62866085 8.96484375 9.59375 C9.76921875 9.738125 10.57359375 9.8825 11.40234375 10.03125 C13.96484375 10.59375 13.96484375 10.59375 14.96484375 11.59375 C15.33984375 13.65625 15.33984375 13.65625 14.96484375 16.59375 C14.13087345 17.71324911 13.27352785 18.81545993 12.40234375 19.90625 C9.20906989 24.61632895 10.03485723 28.9365151 10.63427734 34.2902832 C11.33227483 41.67613067 9.48521987 47.67082846 6.96484375 54.59375 C6.63484375 53.93375 6.30484375 53.27375 5.96484375 52.59375 C5.38712723 52.72125137 4.80941071 52.84875275 4.21418762 52.9801178 C-1.80165774 54.30576078 -7.82042093 55.61746858 -13.84106445 56.92114258 C-16.08728557 57.40943742 -18.33273969 57.9012746 -20.57739258 58.39672852 C-23.80484816 59.10846778 -27.03485194 59.80740226 -30.265625 60.50390625 C-31.2678862 60.72780533 -32.2701474 60.95170441 -33.30278015 61.18238831 C-34.24337784 61.38267136 -35.18397552 61.58295441 -36.15307617 61.78930664 C-36.97692307 61.96917618 -37.80076996 62.14904572 -38.64958191 62.33436584 C-42.90952744 62.7975509 -45.40164268 62.05832662 -48.84765625 59.53125 C-49.93046875 58.5721875 -49.93046875 58.5721875 -51.03515625 57.59375 C-50.44732734 54.20536277 -49.34744628 52.51264928 -46.97265625 50.0546875 C-46.03147949 49.06807129 -46.03147949 49.06807129 -45.07128906 48.06152344 C-44.39936523 47.3709082 -43.72744141 46.68029297 -43.03515625 45.96875 C-41.65422238 44.52413071 -40.27401103 43.07882038 -38.89453125 41.6328125 C-38.22615234 40.93575195 -37.55777344 40.23869141 -36.86914062 39.52050781 C-34.62944372 37.16751421 -32.4481838 34.76728817 -30.28515625 32.34375 C-27.06321737 28.73420945 -23.80931964 25.15590028 -20.53515625 21.59375 C-17.04462581 17.79148895 -13.56088993 13.98343599 -10.09765625 10.15625 C-9.40800781 9.39441406 -8.71835938 8.63257813 -8.0078125 7.84765625 C-5.95491081 5.57081788 -5.95491081 5.57081788 -4.03515625 2.83984375 C-2.03515625 0.59375 -2.03515625 0.59375 0 0 Z " fill="#55B4EB" transform="translate(261.03515625,260.40625)"/>
<path d="M0 0 C0.09092589 3.63703571 -0.56370663 5.54065717 -3.0703125 8.1796875 C-5.33888266 10.17802046 -7.63476785 12.11737077 -10 14 C-9.01 14.99 -9.01 14.99 -8 16 C-8.375 18.125 -8.375 18.125 -9 20 C-10.32 20 -11.64 20 -13 20 C-12.79503906 20.61488281 -12.59007812 21.22976562 -12.37890625 21.86328125 C-11.25260417 25.2421875 -10.12630208 28.62109375 -9 32 C-9.99 32 -10.98 32 -12 32 C-12 34.64 -12 37.28 -12 40 C-13.6875 40.75 -13.6875 40.75 -16 41 C-18.75 39.0625 -18.75 39.0625 -21 37 C-20.125 32.125 -20.125 32.125 -19 31 C-19.37793485 27.09467317 -19.76052513 23.7184246 -21 20 C-24.74574332 21.4124238 -28.47997752 22.85164291 -32.20605469 24.31518555 C-33.47180685 24.80812033 -34.74034398 25.29397062 -36.01171875 25.7722168 C-43.76899011 28.69643977 -49.26358878 31.05152859 -54 38 C-59 37 -59 37 -61.33886719 36.37207031 C-64.51658026 35.92777355 -66.35786191 36.46362216 -69.390625 37.484375 C-70.47351807 37.83773926 -71.55641113 38.19110352 -72.67211914 38.55517578 C-73.85281982 38.94946777 -75.03352051 39.34375977 -76.25 39.75 C-78.83533972 40.58230727 -81.42156312 41.40957239 -84.01171875 42.2265625 C-84.7070018 42.44589447 -85.40228485 42.66522644 -86.11863708 42.89120483 C-94.78223124 45.59530164 -103.52774745 48.00317513 -112.28771973 50.37316895 C-114.13551791 50.87383275 -115.98228918 51.37830235 -117.82800293 51.88659668 C-120.43610321 52.60379195 -123.04740866 53.30776337 -125.66015625 54.0078125 C-126.44437454 54.22504974 -127.22859283 54.44228699 -128.03657532 54.66610718 C-131.76677534 55.64771568 -134.31603323 56.14180327 -138 55 C-132.84401712 48.71221599 -127.9468257 46.42464539 -120.1875 44.375 C-119.17719727 44.08778076 -118.16689453 43.80056152 -117.12597656 43.50463867 C-114.08983872 42.64656852 -111.04666286 41.8198091 -108 41 C-106.29262351 40.53120347 -104.585567 40.06123928 -102.87890625 39.58984375 C-100.59259811 38.95846151 -98.30619592 38.32779655 -96.01757812 37.70483398 C-91.1775038 36.37491859 -86.48224101 34.8189764 -81.79394531 33.01806641 C-78.9144531 31.96882816 -76.01943317 31.07653892 -73.08203125 30.203125 C-65.79827255 27.97897084 -58.6441694 25.44643765 -51.5 22.8125 C-50.8516922 22.57389252 -50.2033844 22.33528503 -49.53543091 22.08944702 C-26.07184911 13.51496698 -26.07184911 13.51496698 -4.30078125 1.43359375 C-2 0 -2 0 0 0 Z " fill="#C6CFD9" transform="translate(409,193)"/>
<path d="M0 0 C2 2 2 2 2.375 5.25 C2.25586121 11.68349485 -0.08576147 17.91545611 -2 24 C-2.495 23.01 -2.495 23.01 -3 22 C-3.57771652 22.12750137 -4.15543304 22.25500275 -4.75065613 22.3863678 C-10.76650149 23.71201078 -16.78526468 25.02371858 -22.8059082 26.32739258 C-25.05212932 26.81568742 -27.29758344 27.3075246 -29.54223633 27.80297852 C-32.76969191 28.51471778 -35.99969569 29.21365226 -39.23046875 29.91015625 C-40.73386055 30.24600487 -40.73386055 30.24600487 -42.2676239 30.58863831 C-43.20822159 30.78892136 -44.14881927 30.98920441 -45.11791992 31.19555664 C-45.94176682 31.37542618 -46.76561371 31.55529572 -47.61442566 31.74061584 C-51.87437119 32.2038009 -54.36648643 31.46457662 -57.8125 28.9375 C-58.534375 28.298125 -59.25625 27.65875 -60 27 C-59.52042767 22.71446004 -56.7812778 20.23068595 -53.9375 17.25 C-53.46505859 16.74339844 -52.99261719 16.23679687 -52.50585938 15.71484375 C-51.34369289 14.47050387 -50.17269839 13.23441936 -49 12 C-48.34 12.350625 -47.68 12.70125 -47 13.0625 C-38.29958002 15.78138124 -28.97819472 10.63937934 -20.875 7.5625 C-18.85124938 6.80341226 -16.82660394 6.04675381 -14.80178833 5.29051208 C-12.96909863 4.60455078 -11.13853587 3.91291475 -9.30810547 3.22094727 C-6.22373634 2.08257605 -3.12505305 1.02061324 0 0 Z " fill="#5AA2CC" transform="translate(270,291)"/>
<path d="M0 0 C0.99 0 1.98 0 3 0 C4.49119231 2.98238462 4.35629279 5.87181896 4.5625 9.1875 C4.64628906 10.48042969 4.73007812 11.77335938 4.81640625 13.10546875 C4.98795494 16.74449087 5.03306904 20.35768091 5 24 C6.19496094 23.97679687 7.38992188 23.95359375 8.62109375 23.9296875 C29.63067909 23.64049388 29.63067909 23.64049388 37 29 C37.66 29.66 38.32 30.32 39 31 C38.91200473 34.34382025 38.35216988 35.65850194 35.9375 38 C34.968125 38.66 33.99875 39.32 33 40 C32.46125244 40.42176514 31.92250488 40.84353027 31.36743164 41.27807617 C25.51106454 45.52072346 20.56516333 45.61383571 13.5 45.3125 C12.48679687 45.28994141 11.47359375 45.26738281 10.4296875 45.24414062 C7.95154633 45.1856939 5.47658434 45.10382997 3 45 C2.51171875 42.98177083 2.0234375 40.96354167 1.53515625 38.9453125 C1.05153008 36.9414343 1.05153008 36.9414343 0 35 C-1.62499899 23.3541739 -0.7373075 11.67988714 0 0 Z " fill="#DAA111" transform="translate(349,240)"/>
<path d="M0 0 C-0.53955078 2.84375 -0.53955078 2.84375 -2 6 C-4.59985654 7.21453152 -6.61409061 7.88070338 -9.3671875 8.5 C-10.15205536 8.6966626 -10.93692322 8.8933252 -11.74557495 9.09594727 C-14.48977461 9.76721433 -17.24190223 10.38838744 -20 11 C-21.035802 11.23187012 -22.071604 11.46374023 -23.13879395 11.70263672 C-31.45154408 13.54628826 -39.78624229 15.27857671 -48.125 17 C-50.58605114 17.51247542 -53.04698929 18.02549372 -55.5078125 18.5390625 C-60.35076891 19.54879359 -65.19442795 20.55503293 -70.03881836 21.55786133 C-75.56211051 22.7012428 -81.08405403 23.85093969 -86.60536194 25.00386047 C-96.89463348 27.15195819 -107.1857743 29.29011867 -117.48950195 31.36791992 C-118.98925473 31.67126878 -120.48858803 31.97669711 -121.98754883 32.28393555 C-124.2238607 32.74210098 -126.46135685 33.19400606 -128.69921875 33.64453125 C-129.98658936 33.90596924 -131.27395996 34.16740723 -132.6003418 34.43676758 C-135.51731047 34.92003126 -138.06121589 35.28572898 -141 35 C-142.8125 33 -142.8125 33 -144 31 C-142.80890625 30.78085937 -141.6178125 30.56171875 -140.390625 30.3359375 C-128.5560611 28.13230919 -116.78494134 25.69403931 -105.02075195 23.14208984 C-99.00500035 21.84203212 -92.99492591 20.58904785 -86.9375 19.5 C-75.9000906 17.48578921 -64.97453811 14.9383932 -54.03387451 12.46014404 C-51.88892819 11.9748711 -49.74357583 11.49142489 -47.59814453 11.00830078 C-43.7419784 10.13962853 -39.88666493 9.26725385 -36.03189087 8.39242554 C-34.53743184 8.05355251 -33.04278904 7.71548868 -31.54794312 7.37832642 C-22.60219315 5.35852272 -13.7285039 3.17999307 -4.88769531 0.73876953 C-2 0 -2 0 0 0 Z " fill="#C7D0D9" transform="translate(201,261)"/>
<path d="M0 0 C0.85078125 0.42023438 1.7015625 0.84046875 2.578125 1.2734375 C4.75 2.625 4.75 2.625 6.75 5.625 C1.4237699 7.64439276 -3.90950368 9.64365601 -9.25 11.625 C-10.19230469 11.97691406 -11.13460938 12.32882813 -12.10546875 12.69140625 C-16.2250418 14.1591371 -19.82968552 15.34458608 -24.25 14.625 C-26.625 13 -26.625 13 -28.25 10.625 C-28.96664549 5.60848158 -28.96664549 5.60848158 -27.1484375 3.11328125 C-24.45498033 1.00174384 -21.64915938 0.03790116 -18.4375 -1.125 C-16.63345703 -1.79789063 -16.63345703 -1.79789063 -14.79296875 -2.484375 C-9.09314807 -3.91718549 -5.13250421 -2.59773986 0 0 Z " fill="#7DC6F1" transform="translate(398.25,182.375)"/>
<path d="M0 0 C-1.24976756 3.65316671 -1.67098753 4.78065836 -5 7 C-4.7525 8.051875 -4.505 9.10375 -4.25 10.1875 C-4 14 -4 14 -6 16.375 C-8.63461955 19.83293816 -8.1707415 21.75267782 -7.65234375 25.9140625 C-6.89944121 28.32154726 -5.90048382 29.38278613 -4 31 C-4.33 31.99 -4.66 32.98 -5 34 C-9.88914797 33.28905007 -12.0786025 30.21496095 -15.16015625 26.60546875 C-19.32105507 20.71307063 -20.57144506 14.1430632 -20 7 C-19.68574635 5.66204128 -19.35626889 4.32738893 -19 3 C-16.77518771 2.29853686 -14.54492632 1.61434046 -12.3125 0.9375 C-11.07113281 0.55464844 -9.82976562 0.17179687 -8.55078125 -0.22265625 C-5.1468214 -0.96785758 -3.28440924 -0.99851065 0 0 Z " fill="#FAC333" transform="translate(119,332)"/>
<path d="M0 0 C0.99 0 1.98 0 3 0 C3.43403155 2.58468229 3.40169405 4.36015737 1.98779297 6.61230469 C0.52552397 8.4230315 -0.99467741 10.1548243 -2.5625 11.875 C-3.38633179 12.80046631 -3.38633179 12.80046631 -4.22680664 13.74462891 C-5.80582384 15.50778331 -7.402007 17.25406411 -9 19 C-9.71929687 19.8146875 -10.43859375 20.629375 -11.1796875 21.46875 C-15.23548918 25.8670416 -15.23548918 25.8670416 -18.875 26.5 C-21 26 -21 26 -22 25 C-22.40038554 20.83599038 -22.44184328 18.67749304 -20.125 15.125 C-18 13 -18 13 -16 12 C-14.98308736 10.00854609 -13.98357352 8.00812926 -13 6 C-10.28505068 3.28505068 -7.78527931 3.23368715 -4.09375 2.5625 C-1.8002393 2.1331915 -1.8002393 2.1331915 0 0 Z " fill="#FAC332" transform="translate(333,348)"/>
<path d="M0 0 C-0.33 0.99 -0.66 1.98 -1 3 C-3.37420998 3.93907648 -5.60723206 4.65463983 -8.0625 5.3125 C-9.17915039 5.62670898 -9.17915039 5.62670898 -10.31835938 5.94726562 C-17.8820714 8.04249373 -25.50960618 9.89744638 -33.13110352 11.76879883 C-38.96789449 13.21011283 -44.74891852 14.74868835 -50.5 16.5 C-58.29537603 18.87383749 -66.17857504 20.82090507 -74.09277344 22.75634766 C-81.07036302 24.47671138 -87.968424 26.37118985 -94.82421875 28.52734375 C-98.09963372 29.53877046 -100.51954269 30 -104 30 C-103.505 28.515 -103.505 28.515 -103 27 C-101.2512207 26.2355957 -101.2512207 26.2355957 -98.92578125 25.67578125 C-98.04631836 25.45607666 -97.16685547 25.23637207 -96.26074219 25.01000977 C-95.28782227 24.77983154 -94.31490234 24.54965332 -93.3125 24.3125 C-91.19889079 23.78777761 -89.085626 23.2616665 -86.97265625 22.734375 C-85.84102051 22.45529297 -84.70938477 22.17621094 -83.54345703 21.88867188 C-77.42584161 20.3544208 -71.34012442 18.70184582 -65.25 17.0625 C-55.49199537 14.44845986 -45.72200145 11.88790958 -35.9375 9.375 C-26.6679221 6.9942479 -17.44880315 4.47832459 -8.26733398 1.77685547 C-2.19610583 0 -2.19610583 0 0 0 Z " fill="#ECF6FC" transform="translate(152,319)"/>
<path d="M0 0 C0.33 1.32 0.66 2.64 1 4 C-0.65 4.33 -2.3 4.66 -4 5 C-3.79503906 5.61488281 -3.59007812 6.22976562 -3.37890625 6.86328125 C-2.25260417 10.2421875 -1.12630208 13.62109375 0 17 C-0.99 17 -1.98 17 -3 17 C-3 19.64 -3 22.28 -3 25 C-4.6875 25.75 -4.6875 25.75 -7 26 C-9.75 24.0625 -9.75 24.0625 -12 22 C-11.125 17.125 -11.125 17.125 -10 16 C-10.09002398 13.97591245 -10.24641038 11.95455713 -10.4375 9.9375 C-10.53933594 8.83277344 -10.64117187 7.72804687 -10.74609375 6.58984375 C-10.82988281 5.73519531 -10.91367187 4.88054687 -11 4 C-7.20307814 1.17438373 -4.81430721 -0.56638908 0 0 Z " fill="#5AB4E4" transform="translate(400,208)"/>
<path d="M0 0 C0.99 0 1.98 0 3 0 C4.67790358 3.35580717 4.4028984 7.06548068 4.61645508 10.77026367 C4.65665771 11.4532251 4.69686035 12.13618652 4.73828125 12.83984375 C4.77904785 13.53319824 4.81981445 14.22655273 4.86181641 14.94091797 C4.9920268 16.88119094 5.17214524 18.81792938 5.35546875 20.75390625 C6.0233931 27.91248367 5.93747195 34.05072044 4 41 C-4.32370653 30.14299148 -0.81787542 12.95618518 0 0 Z " fill="#5CB4E2" transform="translate(349,240)"/>
<path d="M0 0 C0.77472656 0.10892578 1.54945313 0.21785156 2.34765625 0.33007812 C4.23440434 0.59794977 6.11766828 0.89017715 8 1.1875 C8.56638908 6.00180721 6.82561627 8.39057814 4 12.1875 C1.43724147 11.22985345 -1.12521289 10.2714064 -3.6875 9.3125 C-4.40873047 9.04308594 -5.12996094 8.77367187 -5.87304688 8.49609375 C-9.59946483 7.10081397 -13.31324655 5.68547083 -17 4.1875 C-17 3.5275 -17 2.8675 -17 2.1875 C-10.79820649 -0.61035457 -6.66536267 -1.0800891 0 0 Z " fill="#5AA2CC" transform="translate(268,270.8125)"/>
<path d="M0 0 C1.15242188 0.20367187 2.30484375 0.40734375 3.4921875 0.6171875 C4.36101562 0.78476563 5.22984375 0.95234375 6.125 1.125 C6.125 1.785 6.125 2.445 6.125 3.125 C2.11012104 4.4420361 -1.9099268 5.74142738 -5.93554688 7.02514648 C-7.30263839 7.4637604 -8.66823585 7.90706091 -10.03222656 8.35522461 C-11.99945732 9.00067733 -13.97154416 9.62877373 -15.9453125 10.25390625 C-17.12883301 10.63619385 -18.31235352 11.01848145 -19.53173828 11.41235352 C-23.08435107 12.16962507 -25.39213567 12.10421503 -28.875 11.125 C-30.25 9.0625 -30.25 9.0625 -30.875 7.125 C-30.16214844 7.19460937 -29.44929688 7.26421875 -28.71484375 7.3359375 C-23.01416019 7.77164798 -23.01416019 7.77164798 -17.796875 5.859375 C-16.06051934 4.29619986 -16.06051934 4.29619986 -14.60546875 2.6328125 C-10.11538924 -1.27953669 -5.57006595 -1.02307334 0 0 Z " fill="#5AB5E7" transform="translate(313.875,177.875)"/>
<path d="M0 0 C-0.33 0.99 -0.66 1.98 -1 3 C-4.01464395 3.90192217 -6.92709372 4.61149196 -10 5.25 C-18.37027327 7.1090114 -26.62825393 9.21496386 -34.875 11.5625 C-35.92961426 11.8613208 -36.98422852 12.1601416 -38.07080078 12.46801758 C-40.10988228 13.04607147 -42.14878927 13.62474138 -44.1875 14.20410156 C-48.07724074 15.30484417 -51.97254798 16.38277 -55.875 17.4375 C-57.57269531 17.89962891 -57.57269531 17.89962891 -59.3046875 18.37109375 C-62 19 -62 19 -65 19 C-64.505 17.515 -64.505 17.515 -64 16 C-61.64599609 15.08032227 -61.64599609 15.08032227 -58.5234375 14.31640625 C-56.81583252 13.88787354 -56.81583252 13.88787354 -55.07373047 13.45068359 C-53.85314941 13.15758301 -52.63256836 12.86448242 -51.375 12.5625 C-48.8853608 11.94163022 -46.395777 11.32053827 -43.90625 10.69921875 C-42.10607422 10.25715088 -42.10607422 10.25715088 -40.26953125 9.80615234 C-36.46024093 8.86691424 -32.66621176 7.88461618 -28.875 6.875 C-27.76125 6.57851562 -26.6475 6.28203125 -25.5 5.9765625 C-22.82187452 5.22931767 -20.16076151 4.45360902 -17.5 3.6484375 C-16.34588623 3.30063232 -16.34588623 3.30063232 -15.16845703 2.94580078 C-13.68301107 2.49513855 -12.19945612 2.03817562 -10.71826172 1.57373047 C-7.0459323 0.45575904 -3.84554819 -0.26933801 0 0 Z " fill="#FFF9EA" transform="translate(150,215)"/>
<path d="M0 0 C8.90054879 2.75107872 17.41643491 6.40298363 26 10 C23.12921701 11.91385532 20.66588344 12.96432952 17.4375 14.125 C16.46683594 14.47820312 15.49617187 14.83140625 14.49609375 15.1953125 C12 16 12 16 10 16 C9.649375 14.96875 9.29875 13.9375 8.9375 12.875 C7.28549076 8.9133856 4.83210853 6.87004273 1.42578125 4.359375 C0.95527344 3.91078125 0.48476562 3.4621875 0 3 C0 2.01 0 1.02 0 0 Z " fill="#59B5EA" transform="translate(167,213)"/>
<path d="M0 0 C0.78375 0.04125 1.5675 0.0825 2.375 0.125 C2.34019531 1.05119141 2.34019531 1.05119141 2.3046875 1.99609375 C2.17666892 8.00382303 2.80659253 13.32749382 4.375 19.125 C-0.56867454 20.33077428 -3.83362412 19.7540678 -8.625 18.125 C-7.37523244 14.47183329 -6.95401247 13.34434164 -3.625 11.125 C-3.72039062 10.49851563 -3.81578125 9.87203125 -3.9140625 9.2265625 C-4.02492188 8.40929687 -4.13578125 7.59203125 -4.25 6.75 C-4.36601562 5.93789062 -4.48203125 5.12578125 -4.6015625 4.2890625 C-4.60929687 3.57492188 -4.61703125 2.86078125 -4.625 2.125 C-2.625 0.125 -2.625 0.125 0 0 Z " fill="#F9C334" transform="translate(310.625,135.875)"/>
<path d="M0 0 C1.32 0.33 2.64 0.66 4 1 C3.01 1 2.02 1 1 1 C3.475 3.97 3.475 3.97 6 7 C1.05537872 8.73687886 -3.89251753 10.46394249 -8.84375 12.18188477 C-10.52861366 12.76804441 -12.21254026 13.35690465 -13.89550781 13.94848633 C-16.31075319 14.7969515 -18.72917052 15.63573826 -21.1484375 16.47265625 C-21.9036972 16.74030289 -22.65895691 17.00794952 -23.43710327 17.28370667 C-25.2726529 17.91337156 -27.13486427 18.46428642 -29 19 C-29.66 18.67 -30.32 18.34 -31 18 C-27.50239113 15.39921391 -24.57542301 13.77055554 -20.375 12.5625 C-17.09987155 11.56855554 -16.22933287 11.29591338 -14.0625 8.5 C-11.25846241 5.10116656 -8.44221157 4.73308692 -4.2421875 3.7734375 C-1.65119898 3.13295758 -1.65119898 3.13295758 0 0 Z " fill="#F8C439" transform="translate(282,184)"/>
<path d="M0 0 C2.475 0.495 2.475 0.495 5 1 C5.08636719 1.61488281 5.17273438 2.22976562 5.26171875 2.86328125 C6.0475166 8.10880724 6.0475166 8.10880724 9.4375 11.9375 C10.283125 12.288125 11.12875 12.63875 12 13 C12.99 13.66 13.98 14.32 15 15 C15 15.99 15 16.98 15 18 C14.34 18 13.68 18 13 18 C12.67 18.99 12.34 19.98 12 21 C12 19.68 12 18.36 12 17 C8.7 17 5.4 17 2 17 C-0.29612756 5.47835991 -0.29612756 5.47835991 0 0 Z " fill="#5EB5DF" transform="translate(379,248)"/>
<path d="M0 0 C3.36977158 4.12797018 5.60669166 8.80242934 8.0390625 13.51171875 C9.48217615 16.27126049 10.84938957 18.80366855 12.75 21.28125 C14 23 14 23 14 26 C12.35 26.33 10.7 26.66 9 27 C7.67441618 23.81778809 6.36696453 20.62842092 5.0625 17.4375 C4.50272461 16.09461914 4.50272461 16.09461914 3.93164062 14.72460938 C1.91583139 9.76680828 0.46151247 5.3403586 0 0 Z " fill="#48A8E1" transform="translate(57,315)"/>
<path d="M0 0 C2 3 2 3 1.9375 5.5625 C1 8 1 8 -1.3125 9.375 C-4.0725796 10.01687898 -5.39507666 10.02336274 -8 9 C-9 8 -9 8 -9.0625 4.9375 C-9.041875 3.968125 -9.02125 2.99875 -9 2 C-5.89782379 0.16167336 -3.60591321 -0.47446226 0 0 Z " fill="#83C8F2" transform="translate(268,220)"/>
<path d="M0 0 C2 3 2 3 1.9375 5.5625 C1 8 1 8 -1.3125 9.375 C-4.05329335 10.0123938 -5.39855749 9.96349722 -8 9 C-8.33 6.69 -8.66 4.38 -9 2 C-5.89782379 0.16167336 -3.60591321 -0.47446226 0 0 Z " fill="#82C8F2" transform="translate(191,242)"/>
<path d="M0 0 C1 1 1 1 1.1875 3.4375 C1 6 1 6 -1 8 C-3.32275177 8.40047444 -5.65739357 8.7397104 -8 9 C-9.33454536 6.8019253 -10.02787435 5.47386397 -9.875 2.875 C-9 1 -9 1 -7.25 -0.3125 C-4.46162787 -1.1645026 -2.76909941 -0.82324577 0 0 Z " fill="#81C8F2" transform="translate(153,254)"/>
<path d="M0 0 C1 1 1 1 1.0625 4.0625 C1.041875 5.031875 1.02125 6.00125 1 7 C-2.78187881 8.83691257 -4.94568308 9.15837626 -9 8 C-9.33 6.02 -9.66 4.04 -10 2 C-6.34346173 -0.43769218 -4.30999899 -0.23944439 0 0 Z " fill="#81C8F2" transform="translate(172,248)"/>
<path d="M0 0 C1 1 1 1 1.0625 4.0625 C1.041875 5.031875 1.02125 6.00125 1 7 C-2.78187881 8.83691257 -4.94568308 9.15837626 -9 8 C-9.33 6.02 -9.66 4.04 -10 2 C-6.34346173 -0.43769218 -4.30999899 -0.23944439 0 0 Z " fill="#80C7F2" transform="translate(249,226)"/>
<path d="M0 0 C1 1 1 1 1.0625 3.5625 C1.041875 4.366875 1.02125 5.17125 1 6 C-4.41538462 9.07692308 -4.41538462 9.07692308 -7.375 8.6875 C-7.91125 8.460625 -8.4475 8.23375 -9 8 C-9.625 5.125 -9.625 5.125 -10 2 C-6.84641006 -1.15358994 -4.16958936 -1.43778944 0 0 Z " fill="#7FC7F2" transform="translate(230,232)"/>
<path d="M0 0 C0.33 2.31 0.66 4.62 1 7 C-1.97 7.66 -4.94 8.32 -8 9 C-10 6 -10 6 -9.75 3.375 C-9.5025 2.59125 -9.255 1.8075 -9 1 C-6.04335481 -0.4783226 -3.25770263 -0.06032783 0 0 Z " fill="#7EC0E7" transform="translate(211,237)"/>
<path d="M0 0 C1 1 1 1 1.0625 3.5625 C1.041875 4.366875 1.02125 5.17125 1 6 C-2.4019487 8.09350689 -5.05272412 8.17942163 -9 8 C-9.33 5.69 -9.66 3.38 -10 1 C-3.60763521 -1.46977731 -3.60763521 -1.46977731 0 0 Z " fill="#7DC0E7" transform="translate(307,210)"/>
<path d="M0 0 C0.625 2.875 0.625 2.875 1 6 C-1.76223278 8.76223278 -4.20706617 8.57856291 -8 9 C-10 6 -10 6 -9.625 3.3125 C-9.41875 2.549375 -9.2125 1.78625 -9 1 C-5.8035914 -0.06546953 -3.34252724 -0.07427838 0 0 Z " fill="#7CC6F2" transform="translate(288,215)"/>
<path d="M0 0 C1.75 1.5 1.75 1.5 3 3 C2.34 4.98 1.68 6.96 1 9 C0.01 9 -0.98 9 -2 9 C-2 7.68 -2 6.36 -2 5 C-2.721875 5.350625 -3.44375 5.70125 -4.1875 6.0625 C-7.98532077 7.32844026 -10.47128682 6.76435659 -14 5 C-14 4.34 -14 3.68 -14 3 C-11.69 3 -9.38 3 -7 3 C-7 2.34 -7 1.68 -7 1 C-4 0 -4 0 0 0 Z " fill="#5FB5DF" transform="translate(208,54)"/>
<path d="M0 0 C-0.33 0.99 -0.66 1.98 -1 3 C-3.62267049 4.01707705 -6.11001492 4.82766179 -8.8125 5.5625 C-9.57554443 5.77865967 -10.33858887 5.99481934 -11.12475586 6.2175293 C-17.348425 7.93316589 -23.59475337 9.17311845 -30 10 C-27.54081167 6.31121751 -26.38360894 6.26825369 -22.1875 5.17578125 C-20.45113281 4.71655273 -20.45113281 4.71655273 -18.6796875 4.24804688 C-17.46539062 3.93931641 -16.25109375 3.63058594 -15 3.3125 C-13.78570312 2.99216797 -12.57140625 2.67183594 -11.3203125 2.34179688 C-2.35257862 0 -2.35257862 0 0 0 Z " fill="#E9F5FC" transform="translate(152,319)"/>
<path d="M0 0 C1.98 0 3.96 0 6 0 C5.88590318 2.10478604 5.75834639 4.20884577 5.625 6.3125 C5.55539062 7.48425781 5.48578125 8.65601563 5.4140625 9.86328125 C5 13 5 13 3 16 C-0.39366878 10.62669111 -0.32712342 6.13053511 0 0 Z " fill="#61A2C3" transform="translate(349,265)"/>
<path d="M0 0 C6.93 0 13.86 0 21 0 C21 0.33 21 0.66 21 1 C14.33333333 2.33333333 7.66666667 3.66666667 1 5 C0.67 3.35 0.34 1.7 0 0 Z " fill="#67A5BD" transform="translate(352,285)"/>
<path d="M0 0 C0.8353125 0.680625 0.8353125 0.680625 1.6875 1.375 C4.05313439 3.03733768 6.29015658 4.02144543 9 5 C9 5.66 9 6.32 9 7 C5.17010894 8.80230168 2.21878192 9.19622241 -2 9 C-1.125 2.25 -1.125 2.25 0 0 Z " fill="#F5C032" transform="translate(272,281)"/>
<path d="M0 0 C0 0.66 0 1.32 0 2 C-3.12191873 2.86571599 -6.24793306 3.71558604 -9.375 4.5625 C-10.70917969 4.9327832 -10.70917969 4.9327832 -12.0703125 5.31054688 C-13.34648438 5.65375977 -13.34648438 5.65375977 -14.6484375 6.00390625 C-15.43395996 6.21861572 -16.21948242 6.4333252 -17.02880859 6.65454102 C-19 7 -19 7 -21 6 C-21 5.34 -21 4.68 -21 4 C-18.06520402 3.13541688 -15.12778481 2.28302813 -12.1875 1.4375 C-11.35412109 1.19064453 -10.52074219 0.94378906 -9.66210938 0.68945312 C-8.85966797 0.46064453 -8.05722656 0.23183594 -7.23046875 -0.00390625 C-6.49207764 -0.21861572 -5.75368652 -0.4333252 -4.99291992 -0.65454102 C-3 -1 -3 -1 0 0 Z " fill="#FDF4DC" transform="translate(123,328)"/>
<path d="M0 0 C0 0.66 0 1.32 0 2 C-2.72892283 2.64687807 -5.45812447 3.29253718 -8.1875 3.9375 C-8.95642578 4.11990234 -9.72535156 4.30230469 -10.51757812 4.49023438 C-14.33440092 5.39120113 -18.14656426 6.26637997 -22 7 C-21.67 6.01 -21.34 5.02 -21 4 C-19.28173828 3.18457031 -19.28173828 3.18457031 -17.0703125 2.578125 C-15.87728516 2.24748047 -15.87728516 2.24748047 -14.66015625 1.91015625 C-13.82355469 1.69230469 -12.98695312 1.47445312 -12.125 1.25 C-11.29613281 1.01667969 -10.46726562 0.78335938 -9.61328125 0.54296875 C-3.39996512 -1.13332171 -3.39996512 -1.13332171 0 0 Z " fill="#E5F3FC" transform="translate(107,227)"/>
<path d="M0 0 C0 0.66 0 1.32 0 2 C-2.41509441 2.67286212 -4.83180356 3.33846012 -7.25 4 C-7.93191406 4.19078125 -8.61382812 4.3815625 -9.31640625 4.578125 C-12.70600912 5.49957044 -15.45778976 6 -19 6 C-18.67 5.01 -18.34 4.02 -18 3 C-15.5116281 2.0854194 -13.18488245 1.37807525 -10.625 0.75 C-9.59632812 0.4715625 -9.59632812 0.4715625 -8.546875 0.1875 C-5.18443279 -0.67600656 -3.35597796 -1.11865932 0 0 Z " fill="#F9F9FA" transform="translate(67,343)"/>
<path d="M0 0 C-1.65 1.98 -3.3 3.96 -5 6 C-6.65 5.67 -8.3 5.34 -10 5 C-10.33 4.01 -10.66 3.02 -11 2 C-9.73392393 1.46770674 -8.46189588 0.94955456 -7.1875 0.4375 C-6.47980469 0.14746094 -5.77210938 -0.14257812 -5.04296875 -0.44140625 C-3 -1 -3 -1 0 0 Z " fill="#5DB5E3" transform="translate(360,225)"/>
<path d="M0 0 C-0.33 0.99 -0.66 1.98 -1 3 C-6.49889364 4.89617022 -10.34225575 5.17869672 -16 4 C-10.99926683 1.19958943 -5.74548584 -0.34821126 0 0 Z " fill="#FFF6DF" transform="translate(150,215)"/>
<path d="M0 0 C-3.34520258 1.93242285 -6.44767482 2.5463853 -10.25 3.125 C-11.32765625 3.29257812 -12.4053125 3.46015625 -13.515625 3.6328125 C-14.33546875 3.75398438 -15.1553125 3.87515625 -16 4 C-14 1 -14 1 -10.8125 -0.25 C-6.82363823 -1.03469412 -3.95709913 -0.80757125 0 0 Z " fill="#E0F1FB" transform="translate(82,340)"/>
<path d="M0 0 C1.43931117 0.45261358 2.87638999 0.91232979 4.3125 1.375 C5.11300781 1.63023437 5.91351563 1.88546875 6.73828125 2.1484375 C9 3 9 3 12 5 C10.37675914 5.22162329 8.751279 5.42689803 7.125 5.625 C5.76761719 5.79902344 5.76761719 5.79902344 4.3828125 5.9765625 C3.59648437 5.98429688 2.81015625 5.99203125 2 6 C1.34 5.34 0.68 4.68 0 4 C0 2.68 0 1.36 0 0 Z " fill="#63B5DA" transform="translate(381,149)"/>
<path d="M0 0 C3.39914975 1.13304992 4.05254451 2.12518475 6 5 C5.67 5.66 5.34 6.32 5 7 C4.01 7 3.02 7 2 7 C1.67 7.66 1.34 8.32 1 9 C0.814375 7.576875 0.814375 7.576875 0.625 6.125 C0.28312823 2.91332809 0.28312823 2.91332809 -2 1 C-1.34 0.67 -0.68 0.34 0 0 Z " fill="#EFC445" transform="translate(127,189)"/>
<path d="M0 0 C1.65 0 3.3 0 5 0 C5.66 1.32 6.32 2.64 7 4 C1.25 4.125 1.25 4.125 -1 3 C-0.67 2.01 -0.34 1.02 0 0 Z " fill="#DDC053" transform="translate(219,56)"/>
<path d="M0 0 C-0.33 0.99 -0.66 1.98 -1 3 C-2.84765625 3.73046875 -2.84765625 3.73046875 -5.0625 4.1875 C-5.79597656 4.34605469 -6.52945313 4.50460937 -7.28515625 4.66796875 C-8.13400391 4.83232422 -8.13400391 4.83232422 -9 5 C-9.33 4.01 -9.66 3.02 -10 2 C-8.7090864 1.66376204 -7.41723903 1.33110751 -6.125 1 C-5.40570313 0.814375 -4.68640625 0.62875 -3.9453125 0.4375 C-2 0 -2 0 0 0 Z " fill="#DAEFFB" transform="translate(152,319)"/>
<path d="M0 0 C-0.33 0.99 -0.66 1.98 -1 3 C-4.3 3.66 -7.6 4.32 -11 5 C-8.33297073 0.99945609 -4.80529469 0 0 0 Z " fill="#F5F8F3" transform="translate(133,324)"/>
<path d="M0 0 C0 0.66 0 1.32 0 2 C-7.42857143 4.42857143 -7.42857143 4.42857143 -11 3 C-4.5 0 -4.5 0 0 0 Z " fill="#F9FAF6" transform="translate(117,224)"/>
</svg>
