<svg width="24" height="24" viewBox="0 0 24 24" fill="none" xmlns="http://www.w3.org/2000/svg">
<circle cx="12" cy="12" r="12" fill="#8C387C"/>
<path d="M11.9996 11.7409C11.6566 11.7409 11.3277 11.6047 11.0852 11.3622C10.8427 11.1197 10.7065 10.7908 10.7065 10.4478C10.7065 10.1049 10.8427 9.77598 11.0852 9.53348C11.3277 9.29097 11.6566 9.15473 11.9996 9.15473C12.3425 9.15473 12.6715 9.29097 12.914 9.53348C13.1565 9.77598 13.2927 10.1049 13.2927 10.4478C13.2927 10.6177 13.2593 10.7858 13.1943 10.9427C13.1293 11.0996 13.034 11.2421 12.914 11.3622C12.7939 11.4823 12.6513 11.5775 12.4944 11.6425C12.3376 11.7075 12.1694 11.7409 11.9996 11.7409ZM11.9996 6.82715C11.0393 6.82715 10.1184 7.20861 9.43938 7.88762C8.76037 8.56664 8.37891 9.48757 8.37891 10.4478C8.37891 13.1634 11.9996 17.172 11.9996 17.172C11.9996 17.172 15.6203 13.1634 15.6203 10.4478C15.6203 9.48757 15.2388 8.56664 14.5598 7.88762C13.8808 7.20861 12.9599 6.82715 11.9996 6.82715Z" fill="white"/>
</svg>
